<?xml version="1.0" encoding="utf-8"?>
<!-- Generator: Adobe Illustrator 17.1.0, SVG Export Plug-In . SVG Version: 6.00 Build 0)  -->
<!DOCTYPE svg PUBLIC "-//W3C//DTD SVG 1.1//EN" "http://www.w3.org/Graphics/SVG/1.1/DTD/svg11.dtd">
<svg version="1.1" id="Layer_1" xmlns="http://www.w3.org/2000/svg" xmlns:xlink="http://www.w3.org/1999/xlink" x="0px" y="0px"
	 viewBox="0 0 283.46 223.46" enable-background="new 0 0 283.46 283.46" xml:space="preserve">
<polygon fill="#FFFFFF" points="125.873,106.559 125.873,106.578 125.873,106.559 "/>
<g>
	<g>
		<g>
			<path fill="#004F87" d="M40.537,195.642v-26.673c0-0.916,0.275-1.604,0.825-2.062c0.55-0.457,1.178-0.687,1.885-0.687
				c0.445,0,0.89,0.078,1.336,0.235c0.445,0.157,0.851,0.432,1.218,0.825l20.074,21.92l20.074-21.92
				c0.34-0.367,0.74-0.635,1.198-0.805c0.458-0.171,0.91-0.255,1.355-0.255c0.707,0,1.336,0.23,1.886,0.687
				c0.55,0.458,0.825,1.146,0.825,2.062v26.673h-5.696v-19.681L67.918,195.21c-0.55,0.576-1.232,0.864-2.043,0.864
				c-0.812,0-1.493-0.289-2.043-0.864l-17.599-19.249v19.681H40.537z"/>
			<path fill="#004F87" d="M96.713,195.642v-29.03h5.696v29.03H96.713z"/>
			<path fill="#004F87" d="M107.908,195.642v-26.673c0-0.916,0.275-1.604,0.825-2.062c0.55-0.457,1.178-0.687,1.886-0.687
				c0.445,0,0.89,0.078,1.336,0.235c0.445,0.157,0.851,0.432,1.218,0.825l20.074,21.92l20.074-21.92
				c0.34-0.367,0.74-0.635,1.198-0.805c0.458-0.171,0.909-0.255,1.355-0.255c0.707,0,1.336,0.23,1.886,0.687
				c0.55,0.458,0.824,1.146,0.824,2.062v26.673h-5.695v-19.681l-17.6,19.249c-0.55,0.576-1.231,0.864-2.043,0.864
				c-0.812,0-1.493-0.289-2.043-0.864l-17.599-19.249v19.681H107.908z"/>
			<path fill="#004F87" d="M173.197,195.642c-1.781,0-3.28-0.17-4.498-0.511c-1.217-0.339-2.2-0.844-2.946-1.512
				c-0.746-0.667-1.29-1.492-1.631-2.475c-0.34-0.982-0.511-2.114-0.511-3.398v-13.239c0-1.283,0.171-2.416,0.511-3.398
				c0.34-0.983,0.884-1.808,1.631-2.475c0.746-0.668,1.729-1.172,2.946-1.512c1.218-0.34,2.717-0.511,4.498-0.511h16.616
				c1.755,0,3.247,0.171,4.479,0.511c1.23,0.34,2.219,0.844,2.966,1.512c0.746,0.667,1.289,1.492,1.63,2.475
				c0.34,0.982,0.511,2.115,0.511,3.398v13.239c0,1.284-0.171,2.416-0.511,3.398c-0.34,0.983-0.883,1.808-1.63,2.475
				c-0.747,0.668-1.735,1.173-2.966,1.512c-1.232,0.341-2.725,0.511-4.479,0.511H173.197z M169.465,187.511
				c0,0.812,0.294,1.421,0.883,1.826c0.59,0.407,1.526,0.609,2.809,0.609h16.696c1.283,0,2.22-0.202,2.809-0.609
				c0.589-0.405,0.884-1.014,0.884-1.826v-12.768c0-0.811-0.295-1.42-0.884-1.826c-0.589-0.406-1.526-0.609-2.809-0.609h-16.696
				c-1.283,0-2.219,0.203-2.809,0.609c-0.589,0.406-0.883,1.015-0.883,1.826V187.511z"/>
			<path fill="#004F87" d="M204.427,195.642v-29.03h26.202c1.755,0,3.247,0.171,4.478,0.511c1.23,0.34,2.22,0.844,2.966,1.512
				c0.746,0.667,1.289,1.492,1.631,2.475c0.34,0.982,0.511,2.115,0.511,3.398v2.868c0,1.284-0.171,2.416-0.511,3.398
				c-0.341,0.982-0.884,1.807-1.631,2.474c-0.746,0.668-1.735,1.172-2.966,1.512c-1.231,0.341-2.724,0.511-4.478,0.511h-4.399
				l14.849,10.371h-10.214l-13.749-10.371h-6.992v10.371H204.427z M210.123,180.165h20.544c1.284,0,2.22-0.203,2.81-0.609
				c0.589-0.406,0.883-1.015,0.883-1.827v-2.986c0-0.811-0.294-1.42-0.883-1.826c-0.59-0.406-1.526-0.609-2.81-0.609h-20.544
				V180.165z"/>
		</g>
		<path fill="#004F87" d="M40.537,195.642v-26.673c0-0.916,0.275-1.604,0.825-2.062c0.55-0.457,1.178-0.687,1.885-0.687
			c0.445,0,0.89,0.078,1.336,0.235c0.445,0.157,0.851,0.432,1.218,0.825l20.074,21.92l20.074-21.92
			c0.34-0.367,0.74-0.635,1.198-0.805c0.458-0.171,0.91-0.255,1.355-0.255c0.707,0,1.336,0.23,1.886,0.687
			c0.55,0.458,0.825,1.146,0.825,2.062v26.673h-5.696v-19.681L67.918,195.21c-0.55,0.576-1.232,0.864-2.043,0.864
			c-0.812,0-1.493-0.289-2.043-0.864l-17.599-19.249v19.681H40.537z"/>
		<path fill="#004F87" d="M96.713,195.642v-29.03h5.696v29.03H96.713z"/>
		<path fill="#004F87" d="M107.908,195.642v-26.673c0-0.916,0.275-1.604,0.825-2.062c0.55-0.457,1.178-0.687,1.886-0.687
			c0.445,0,0.89,0.078,1.336,0.235c0.445,0.157,0.851,0.432,1.218,0.825l20.074,21.92l20.074-21.92
			c0.34-0.367,0.74-0.635,1.198-0.805c0.458-0.171,0.909-0.255,1.355-0.255c0.707,0,1.336,0.23,1.886,0.687
			c0.55,0.458,0.824,1.146,0.824,2.062v26.673h-5.695v-19.681l-17.6,19.249c-0.55,0.576-1.231,0.864-2.043,0.864
			c-0.812,0-1.493-0.289-2.043-0.864l-17.599-19.249v19.681H107.908z"/>
		<path fill="#004F87" d="M173.197,195.642c-1.781,0-3.28-0.17-4.498-0.511c-1.217-0.339-2.2-0.844-2.946-1.512
			c-0.746-0.667-1.29-1.492-1.631-2.475c-0.34-0.982-0.511-2.114-0.511-3.398v-13.239c0-1.283,0.171-2.416,0.511-3.398
			c0.34-0.983,0.884-1.808,1.631-2.475c0.746-0.668,1.729-1.172,2.946-1.512c1.218-0.34,2.717-0.511,4.498-0.511h16.616
			c1.755,0,3.247,0.171,4.479,0.511c1.23,0.34,2.219,0.844,2.966,1.512c0.746,0.667,1.289,1.492,1.63,2.475
			c0.34,0.982,0.511,2.115,0.511,3.398v13.239c0,1.284-0.171,2.416-0.511,3.398c-0.34,0.983-0.883,1.808-1.63,2.475
			c-0.747,0.668-1.735,1.173-2.966,1.512c-1.232,0.341-2.725,0.511-4.479,0.511H173.197z M169.465,187.511
			c0,0.812,0.294,1.421,0.883,1.826c0.59,0.407,1.526,0.609,2.809,0.609h16.696c1.283,0,2.22-0.202,2.809-0.609
			c0.589-0.405,0.884-1.014,0.884-1.826v-12.768c0-0.811-0.295-1.42-0.884-1.826c-0.589-0.406-1.526-0.609-2.809-0.609h-16.696
			c-1.283,0-2.219,0.203-2.809,0.609c-0.589,0.406-0.883,1.015-0.883,1.826V187.511z"/>
		<path fill="#004F87" d="M204.427,195.642v-29.03h26.202c1.755,0,3.247,0.171,4.478,0.511c1.23,0.34,2.22,0.844,2.966,1.512
			c0.746,0.667,1.289,1.492,1.631,2.475c0.34,0.982,0.511,2.115,0.511,3.398v2.868c0,1.284-0.171,2.416-0.511,3.398
			c-0.341,0.982-0.884,1.807-1.631,2.474c-0.746,0.668-1.735,1.172-2.966,1.512c-1.231,0.341-2.724,0.511-4.478,0.511h-4.399
			l14.849,10.371h-10.214l-13.749-10.371h-6.992v10.371H204.427z M210.123,180.165h20.544c1.284,0,2.22-0.203,2.81-0.609
			c0.589-0.406,0.883-1.015,0.883-1.827v-2.986c0-0.811-0.294-1.42-0.883-1.826c-0.59-0.406-1.526-0.609-2.81-0.609h-20.544V180.165
			z"/>
	</g>
	<g>
		<path fill="#0C7DD8" d="M57.572,49.757c0-1.521-0.961-1.975-2.136-1.008l-12.09,9.954c-1.175,0.967-2.136,3.003-2.136,4.525v2.194
			v0.001v72.629v24.192h4.841h6.68l0,0h4.841v-2.887v-1.954v0V51.953c0,0,0,0,0,0V49.757z"/>
		<path fill="#186AC0" d="M76.996,90.198l5.043,3.94c0.3,0.234,0.545,0.737,0.545,1.117V69.973c0-2.663-1.699-6.205-3.775-7.872
			l-9.371-7.523l-7.952-6.546c-1.175-0.967-2.136-0.513-2.136,1.008v2.281v25.791c0.086-0.023,0.192-0.001,0.311,0.092l5.137,4.014
			c0.274,0.214,0.498,0.673,0.498,1.02v8.529c0,0.347-0.224,0.457-0.498,0.243l-5.137-4.014c-0.119-0.093-0.225-0.237-0.311-0.394
			V114.3c0.086-0.023,0.192-0.001,0.311,0.092l5.137,4.014c0.274,0.214,0.498,0.673,0.498,1.02v8.529
			c0,0.347-0.224,0.457-0.498,0.243l-5.137-4.014c-0.119-0.093-0.225-0.237-0.311-0.394v14.261v19.351v1.236v3.605h4.841h13.552
			h4.841v-4.841v0v-15.882c0,0.38-0.245,0.5-0.545,0.266l-5.043-3.94c-0.3-0.234-0.545-0.737-0.545-1.117v-8.409
			c0-0.38,0.245-0.5,0.545-0.266l5.043,3.94c0.3,0.234,0.545,0.737,0.545,1.117v-29.448c0,0.38-0.245,0.5-0.545,0.266l-5.043-3.94
			c-0.3-0.234-0.545-0.737-0.545-1.117v-8.409C76.451,90.083,76.696,89.964,76.996,90.198z M67.248,152.339
			c0,0.347-0.224,0.457-0.498,0.243l-3.116-2.434c-0.274-0.214-0.498-0.673-0.498-1.02v-8.529c0-0.347,0.224-0.457,0.498-0.243
			l3.116,2.434c0.274,0.214,0.498,0.673,0.498,1.02V152.339z M67.248,139.293c0,0.347-0.224,0.457-0.498,0.243l-3.116-2.434
			c-0.274-0.214-0.498-0.673-0.498-1.02v-4.343c0-0.347,0.224-0.457,0.498-0.243l3.116,2.434c0.274,0.214,0.498,0.673,0.498,1.02
			V139.293z M67.351,115.151c0,0.347-0.224,0.457-0.498,0.243l-3.116-2.434c-0.274-0.214-0.498-0.673-0.498-1.02v-8.529
			c0-0.347,0.224-0.457,0.498-0.243l3.116,2.434c0.274,0.214,0.498,0.673,0.498,1.02V115.151z M67.351,102.104
			c0,0.347-0.224,0.457-0.498,0.243l-3.116-2.434c-0.274-0.214-0.498-0.673-0.498-1.02v-4.343c0-0.347,0.224-0.457,0.498-0.243
			l3.116,2.434c0.274,0.214,0.498,0.673,0.498,1.02V102.104z M67.351,77.962c0,0.347-0.224,0.457-0.498,0.243l-3.116-2.434
			c-0.274-0.214-0.498-0.673-0.498-1.02V66.22c0-0.347,0.224-0.457,0.498-0.243l3.116,2.434c0.274,0.214,0.498,0.673,0.498,1.02
			V77.962z M67.351,64.916c0,0.347-0.224,0.457-0.498,0.243l-3.116-2.434c-0.274-0.214-0.498-0.673-0.498-1.02V57.36
			c0-0.347,0.224-0.457,0.498-0.243l3.116,2.434c0.274,0.214,0.498,0.673,0.498,1.02V64.916z M70.528,75.465
			c0-0.347,0.224-0.457,0.498-0.243l3.116,2.434c0.274,0.214,0.498,0.673,0.498,1.02v8.529c0,0.347-0.224,0.457-0.498,0.243
			l-3.116-2.434c-0.274-0.214-0.498-0.673-0.498-1.02V75.465z M70.528,121.183v-8.529c0-0.347,0.224-0.457,0.498-0.243l3.116,2.434
			c0.274,0.214,0.498,0.673,0.498,1.02v8.529c0,0.347-0.224,0.457-0.498,0.243l-3.116-2.434
			C70.752,121.99,70.528,121.53,70.528,121.183z M77.215,141.173c0.274,0.214,0.498,0.673,0.498,1.02v8.529
			c0,0.347-0.224,0.457-0.498,0.243l-5.137-4.014c-0.274-0.214-0.498-0.673-0.498-1.02v-8.529c0-0.347,0.224-0.457,0.498-0.243
			L77.215,141.173z M77.318,103.984c0.274,0.214,0.498,0.673,0.498,1.02v8.529c0,0.347-0.224,0.457-0.498,0.243l-5.137-4.014
			c-0.274-0.214-0.498-0.673-0.498-1.02v-8.529c0-0.347,0.224-0.457,0.498-0.243L77.318,103.984z M72.181,72.574
			c-0.274-0.214-0.498-0.673-0.498-1.02v-8.529c0-0.347,0.224-0.457,0.498-0.243l5.137,4.014c0.274,0.214,0.498,0.673,0.498,1.02
			v8.529c0,0.347-0.224,0.457-0.498,0.243L72.181,72.574z"/>
		<path fill="#0C7DD8" d="M92.243,76.116l-6.306,4.913c-0.6,0.468-1.091,1.473-1.091,2.233v5.215l0,0.001v49.3v22.554v1.913h8.488
			v-5.973v-18.494V81.864v-5.215C93.334,75.888,92.843,75.648,92.243,76.116z"/>
		<path fill="#186AC0" d="M98.974,151.772c-0.3-0.234-0.546-0.736-0.546-1.117v-2.92c0-0.38,0.245-0.5,0.546-0.267l13.292,10.356
			v-0.421v-4.549l-13.292-10.356c-0.3-0.234-0.546-0.736-0.546-1.117v-2.92c0-0.38,0.245-0.5,0.546-0.267l13.292,10.356v-4.97
			l-13.292-10.356c-0.3-0.234-0.546-0.736-0.546-1.117v-2.92c0-0.38,0.245-0.5,0.546-0.267l13.292,10.356v-4.427v-0.543
			l-13.292-10.356c-0.3-0.234-0.546-0.736-0.546-1.117v-2.92c0-0.38,0.245-0.5,0.546-0.267l13.292,10.356v-4.97l-13.292-10.356
			c-0.3-0.234-0.546-0.736-0.546-1.117v-2.92c0-0.38,0.245-0.5,0.546-0.267l13.292,10.356v-4.97l-13.292-10.356
			c-0.3-0.234-0.546-0.736-0.546-1.117v-2.92c0-0.38,0.245-0.5,0.546-0.267l13.292,10.356v-4.97L98.974,96.13
			c-0.3-0.234-0.546-0.736-0.546-1.117v-2.92c0-0.38,0.245-0.5,0.546-0.267l13.292,10.356v-4.97L98.974,86.856
			c-0.3-0.234-0.546-0.736-0.546-1.117v-2.92c0-0.38,0.245-0.5,0.546-0.267l13.242,10.318c-0.242-2.561-1.835-5.658-3.77-7.166
			l-5.827-4.54c-0.12-0.152-0.25-0.288-0.385-0.394l-6.306-4.913c-0.6-0.468-1.091-0.228-1.091,0.533v2.681
			c-0.017,0.259-0.026,0.54-0.026,0.85v54.929v27.395h4.841h7.772h4.841v-0.116L98.974,151.772z"/>
		<path fill="#0C7DD8" d="M120.73,98.765l-5.134,4.226c-0.587,0.484-1.068,1.502-1.068,2.262v3.814v0.001v29.471v23.704h1.383h4.503
			h1.383v-1.383v-2.97V138.54v-35.456v-3.815C121.798,98.508,121.318,98.282,120.73,98.765z"/>
		<path fill="#186AC0" d="M149.341,160.082v-2.679v-19.351v-14.497c0-2.663-1.696-6.208-3.77-7.878l-18.942-15.261
			c-0.6-0.483-1.168-0.969-1.673-1.291l-1.029-0.847c-0.587-0.484-1.068-0.257-1.068,0.504v3.438v55.184v0.001v2.969v1.871h3.913
			h0.928h16.305l-17.76-13.876c-0.237-0.185-0.375-0.469-0.375-0.769v-9.936c0-0.373,0.213-0.714,0.548-0.877
			c0.335-0.163,0.735-0.122,1.029,0.108l17.615,13.763v-7.459l-18.817-14.701c-0.237-0.185-0.375-0.469-0.375-0.769v-9.936
			c0-0.373,0.213-0.714,0.548-0.877c0.335-0.163,0.735-0.122,1.029,0.108l17.615,13.763v-7.459l-18.817-14.702
			c-0.275-0.215-0.401-0.548-0.367-0.871l-0.005-1.175l0-0.019c-0.001-0.38,0.242-0.5,0.542-0.266l0.213,0.166l0.213,0.166v0
			l0.518,0.405c0.029,0.018,0.06,0.033,0.087,0.055l19.192,14.995c0.237,0.185,0.375,0.469,0.375,0.769v9.936
			c0,0.373-0.213,0.714-0.548,0.877c-0.334,0.163-0.734,0.122-1.029-0.108l-17.615-13.763v7.459l18.817,14.701
			c0.237,0.185,0.375,0.469,0.375,0.769v9.936c0,0.373-0.213,0.714-0.548,0.877c-0.334,0.163-0.734,0.122-1.029-0.108
			l-17.615-13.763v7.459l18.817,14.701c0.143,0.112,0.231,0.261,0.293,0.419h2.409h91.737v-2.162H149.341z"/>
	</g>
	<g>
		<path fill="#0C7DD8" d="M48.015,210.281l-0.81-2.031H42.65l-0.809,2.031h-1.304l3.677-9.151h1.413l3.691,9.151H48.015z
			 M44.928,202.31l-1.948,4.926h3.883L44.928,202.31z"/>
		<path fill="#0C7DD8" d="M50.507,210.281v-9.151h3.677c1.838,0,2.868,1.262,2.868,2.758c0,1.495-1.056,2.758-2.868,2.758h-2.538
			v3.636H50.507z M55.872,203.888c0-1.029-0.741-1.743-1.825-1.743h-2.401v3.485h2.401C55.131,205.63,55.872,204.917,55.872,203.888
			z"/>
		<path fill="#0C7DD8" d="M64.031,210.281l-0.81-2.031h-4.555l-0.809,2.031h-1.304l3.677-9.151h1.413l3.691,9.151H64.031z
			 M60.944,202.31l-1.948,4.926h3.883L60.944,202.31z"/>
		<path fill="#0C7DD8" d="M71.82,210.281l-2.333-3.636h-1.825v3.636h-1.139v-9.151h3.677c1.674,0,2.868,1.07,2.868,2.758
			c0,1.646-1.125,2.552-2.374,2.662l2.469,3.731H71.82z M71.888,203.888c0-1.029-0.741-1.743-1.825-1.743h-2.401v3.499h2.401
			C71.147,205.644,71.888,204.917,71.888,203.888z"/>
		<path fill="#0C7DD8" d="M76.988,210.281v-8.136h-2.895v-1.015h6.943v1.015h-2.909v8.136H76.988z"/>
		<path fill="#0C7DD8" d="M90.361,210.281v-7.533l-3.114,7.533H86.78l-3.101-7.533v7.533h-1.139v-9.151h1.632l2.84,6.887
			l2.854-6.887H91.5v9.151H90.361z"/>
		<path fill="#0C7DD8" d="M93.634,210.281v-9.151h5.996v1.015h-4.857v2.95h4.761v1.015h-4.761v3.157h4.857v1.015H93.634z"/>
		<path fill="#0C7DD8" d="M107.912,210.281l-5.337-7.299v7.299h-1.139v-9.151h1.166l5.269,7.148v-7.148h1.139v9.151H107.912z"/>
		<path fill="#0C7DD8" d="M113.409,210.281v-8.136h-2.895v-1.015h6.943v1.015h-2.909v8.136H113.409z"/>
		<path fill="#0C7DD8" d="M122.5,210.281v-9.151h1.139v8.136h4.253v1.015H122.5z"/>
		<path fill="#0C7DD8" d="M129.493,210.281v-9.151h1.139v9.151H129.493z"/>
		<path fill="#0C7DD8" d="M135.501,210.281l-3.677-9.151h1.304l3.087,7.903l3.087-7.903h1.303l-3.691,9.151H135.501z"/>
		<path fill="#0C7DD8" d="M141.794,210.281v-9.151h1.139v9.151H141.794z"/>
		<path fill="#0C7DD8" d="M151.547,210.281l-5.337-7.299v7.299h-1.139v-9.151h1.166l5.269,7.148v-7.148h1.139v9.151H151.547z"/>
		<path fill="#0C7DD8" d="M154.41,205.713c0-2.841,2.099-4.734,4.706-4.734c1.619,0,2.744,0.714,3.554,1.715l-0.905,0.562
			c-0.576-0.741-1.551-1.263-2.648-1.263c-2.003,0-3.526,1.537-3.526,3.719c0,2.168,1.523,3.731,3.526,3.731
			c1.098,0,2.003-0.535,2.456-0.988v-1.865h-3.142v-1.016h4.281v3.307c-0.851,0.947-2.099,1.577-3.595,1.577
			C156.509,210.459,154.41,208.553,154.41,205.713z"/>
		<path fill="#0C7DD8" d="M175.916,210.281v-7.533l-3.115,7.533h-0.466l-3.101-7.533v7.533h-1.139v-9.151h1.632l2.84,6.887
			l2.854-6.887h1.633v9.151H175.916z"/>
		<path fill="#0C7DD8" d="M185.72,210.281l-0.81-2.031h-4.555l-0.809,2.031h-1.304l3.677-9.151h1.413l3.691,9.151H185.72z
			 M182.633,202.31l-1.948,4.926h3.883L182.633,202.31z"/>
		<path fill="#0C7DD8" d="M188.212,210.281v-9.151h3.128c2.84,0,4.693,1.99,4.693,4.583c0,2.607-1.852,4.568-4.693,4.568H188.212z
			 M194.852,205.713c0-1.976-1.248-3.568-3.512-3.568h-1.989v7.121h1.989C193.563,209.267,194.852,207.675,194.852,205.713z"/>
		<path fill="#0C7DD8" d="M197.811,210.281v-9.151h5.996v1.015h-4.857v2.95h4.761v1.015h-4.761v3.157h4.857v1.015H197.811z"/>
		<path fill="#0C7DD8" d="M209.151,210.281v-9.151h5.996v1.015h-4.857v2.95h4.761v1.015h-4.761v3.157h4.857v1.015H209.151z"/>
		<path fill="#0C7DD8" d="M223.484,210.281l-0.81-2.031h-4.555l-0.81,2.031h-1.303l3.677-9.151h1.413l3.691,9.151H223.484z
			 M220.397,202.31l-1.948,4.926h3.883L220.397,202.31z"/>
		<path fill="#0C7DD8" d="M225.236,208.992l0.672-0.865c0.604,0.672,1.592,1.304,2.881,1.304c1.633,0,2.154-0.878,2.154-1.578
			c0-2.36-5.419-1.056-5.419-4.322c0-1.509,1.344-2.539,3.142-2.539c1.399,0,2.483,0.467,3.252,1.276l-0.686,0.837
			c-0.686-0.755-1.647-1.097-2.648-1.097c-1.098,0-1.88,0.589-1.88,1.454c0,2.058,5.419,0.878,5.419,4.295
			c0,1.331-0.905,2.689-3.375,2.689C227.157,210.446,225.991,209.842,225.236,208.992z"/>
		<path fill="#0C7DD8" d="M236.345,210.281v-3.869l-3.609-5.282h1.331l2.84,4.253l2.84-4.253h1.331l-3.595,5.282v3.869H236.345z"/>
	</g>
</g>
</svg>
