<svg width="16" height="16" viewBox="0 0 16 16" fill="none" xmlns="http://www.w3.org/2000/svg">
<path fill-rule="evenodd" clip-rule="evenodd" d="M11.5556 1.6V0.8C11.5556 0.358172 11.9535 0 12.4444 0C12.9354 0 13.3333 0.358172 13.3333 0.8V1.6C14.8061 1.6 16 2.67452 16 4V13.6C16 14.9255 14.8061 16 13.3333 16H2.66667C1.19391 16 0 14.9255 0 13.6V4C0 2.67452 1.19391 1.6 2.66667 1.6V0.8C2.66667 0.358172 3.06464 0 3.55556 0C4.04648 0 4.44444 0.358172 4.44444 0.8V1.6H11.5556ZM14.2222 5.6H1.77778V13.6C1.77778 14.0418 2.17575 14.4 2.66667 14.4H13.3333C13.8243 14.4 14.2222 14.0418 14.2222 13.6V5.6ZM7.11111 7.2H3.55556V10.4H7.11111V7.2Z" fill="#4f75b4"/>
</svg>
