<svg width="18" height="18" viewBox="0 0 18 18" fill="none" xmlns="http://www.w3.org/2000/svg">
<path fill-rule="evenodd" clip-rule="evenodd" d="M11.9884 2.63365C10.5805 0.455451 7.39291 0.455451 5.98506 2.63365L0.566124 11.0542C-0.947989 13.4184 0.752068 16.5529 3.56779 16.5529H14.4322C17.2479 16.5529 18.948 13.4449 17.4339 11.0542L11.9884 2.63365ZM9.86331 13.4981C9.86331 13.9231 9.6508 14.1356 9.22579 14.1356H8.66796C8.24294 14.1356 8.03044 13.9231 8.03044 13.4981V13.0199C8.03044 12.5949 8.24294 12.3824 8.66796 12.3824H9.22579C9.6508 12.3824 9.86331 12.5949 9.86331 13.0199V13.4981ZM9.17266 11.0277C9.59768 11.0277 9.83675 10.7886 9.83675 10.3902L9.96956 5.90094C9.96956 5.47593 9.75706 5.23686 9.33204 5.23686H8.53514C8.11013 5.23686 7.89762 5.47593 7.89762 5.90094L8.03044 10.3902C8.057 10.8152 8.29607 11.0277 8.69452 11.0277H9.17266Z" fill="#CCCBCB"/>
</svg>
