<svg width="31" height="30" viewBox="0 0 31 30" fill="none" xmlns="http://www.w3.org/2000/svg">
<path fill-rule="evenodd" clip-rule="evenodd" d="M16.3626 2C16.2414 2.00139 16.1257 2.04875 16.0402 2.13188L14.983 3.15856L13.9213 2.13195C13.7409 1.95848 13.4497 1.95848 13.2694 2.13195L12.2086 3.15856L11.1468 2.13195C10.9665 1.95848 10.6753 1.95848 10.495 2.13195L9.43412 3.15856L8.37598 2.13195C8.28724 2.04695 8.16676 2.0003 8.04193 2.0026C7.92178 2.00377 7.80683 2.05016 7.72142 2.13195L6.33555 3.47572C6.24831 3.55968 6.19924 3.67382 6.19922 3.79288V25.2637C6.19924 25.3828 6.24831 25.4969 6.33555 25.5809L7.72142 26.922C7.80815 27.0062 7.9259 27.0535 8.0487 27.0535C8.1715 27.0535 8.28925 27.0062 8.37598 26.922L9.43412 25.898L10.495 26.922C10.6753 27.0955 10.9665 27.0955 11.1468 26.922L12.2086 25.898L13.2694 26.922C13.4497 27.0955 13.7409 27.0955 13.9213 26.922L14.983 25.898L16.0402 26.922C16.127 27.0064 16.2449 27.0539 16.368 27.0539C16.491 27.0539 16.6089 27.0064 16.6957 26.922L17.7529 25.8945L18.8147 26.922C18.9014 27.0064 19.0194 27.0539 19.1424 27.0539C19.2654 27.0539 19.3834 27.0064 19.4701 26.922L20.531 25.8945L21.5891 26.922C21.6759 27.0062 21.7936 27.0535 21.9164 27.0535C22.0392 27.0535 22.157 27.0062 22.2437 26.922L23.6296 25.5809C23.7168 25.4969 23.7659 25.3828 23.7659 25.2637V3.79288C23.7659 3.67382 23.7168 3.55968 23.6296 3.47572L22.2437 2.13195C22.157 2.04782 22.0392 2.00054 21.9164 2.00054C21.7936 2.00054 21.6759 2.04782 21.5891 2.13195L20.531 3.15856L19.4701 2.13195C19.3834 2.04755 19.2654 2.0001 19.1424 2.0001C19.0194 2.0001 18.9014 2.04755 18.8147 2.13195L17.7529 3.15856L16.6957 2.13195C16.6076 2.04624 16.4875 1.99867 16.3626 2.00007V2ZM11.7409 6.02525C11.8654 6.02384 11.9852 6.07107 12.0732 6.15625C12.1612 6.24143 12.21 6.35737 12.2086 6.47783V7.41708C13.2614 7.62541 14.0576 8.53228 14.0576 9.611C14.052 9.85419 13.8467 10.0485 13.5953 10.0485C13.344 10.0485 13.1386 9.85419 13.1331 9.611C13.1331 8.8649 12.5321 8.27698 11.7635 8.26896C11.7538 8.26896 11.7442 8.26866 11.7346 8.26807C10.9649 8.27483 10.3586 8.86424 10.3586 9.61098C10.3586 10.3622 10.9718 10.9521 11.7481 10.9521C13.0206 10.9521 14.0576 11.9566 14.0576 13.188C14.0576 14.2667 13.2614 15.1736 12.2086 15.3819V16.3212C12.2086 16.5685 12.0014 16.7689 11.7459 16.7689C11.4903 16.7689 11.2831 16.5685 11.2831 16.3212V15.381C10.2314 15.1714 9.43411 14.2655 9.43411 13.188C9.4304 13.0258 9.51768 12.8744 9.66223 12.7922C9.80678 12.7101 9.98596 12.7101 10.1305 12.7922C10.2751 12.8744 10.3623 13.0258 10.3586 13.188C10.3586 13.923 10.947 14.5026 11.6994 14.5274C11.7131 14.5257 11.727 14.5246 11.7409 14.524C11.7578 14.5243 11.7746 14.5254 11.7914 14.5274C12.5463 14.5053 13.1331 13.9248 13.1331 13.188C13.1331 12.4368 12.5243 11.8468 11.7481 11.8468C10.4756 11.8468 9.4341 10.8424 9.4341 9.61098C9.4341 8.5335 10.2314 7.62761 11.2831 7.41794V6.47781C11.2817 6.35902 11.3291 6.24456 11.415 6.15966C11.5009 6.07476 11.6181 6.02639 11.7409 6.02523L11.7409 6.02525ZM20.5274 7.37252H15.9075C15.7399 7.36885 15.5833 7.4533 15.4984 7.59322C15.4134 7.73314 15.4134 7.90659 15.4984 8.04651C15.5833 8.18643 15.7399 8.27088 15.9075 8.2672H20.5274C20.695 8.27088 20.8516 8.18643 20.9365 8.04651C21.0215 7.90659 21.0215 7.73314 20.9365 7.59322C20.8516 7.4533 20.695 7.36885 20.5274 7.37252ZM15.8597 10.9522C15.8756 10.9514 15.8916 10.9514 15.9075 10.9522H20.5274C20.6949 10.9486 20.8514 11.0331 20.9362 11.173C21.0211 11.3128 21.0211 11.4862 20.9362 11.6261C20.8514 11.7659 20.6949 11.8504 20.5274 11.8469H15.9075C15.6558 11.8542 15.4443 11.6655 15.4312 11.4222C15.4182 11.1788 15.6086 10.97 15.8597 10.9522ZM15.9075 14.5318C15.8916 14.531 15.8756 14.531 15.8597 14.5318C15.6087 14.5499 15.4186 14.7586 15.4316 15.0018C15.4447 15.245 15.656 15.4336 15.9075 15.4265H20.5274C20.695 15.4302 20.8516 15.3457 20.9366 15.2058C21.0215 15.0659 21.0215 14.8924 20.9366 14.7525C20.8516 14.6126 20.695 14.5281 20.5274 14.5318H15.9075ZM9.43412 18.1079H20.5274C20.6949 18.1044 20.8514 18.1889 20.9362 18.3287C21.0211 18.4686 21.0211 18.642 20.9362 18.7818C20.8514 18.9217 20.6949 19.0062 20.5274 19.0026H9.43412C9.26655 19.0062 9.11012 18.9217 9.02526 18.7818C8.9404 18.642 8.9404 18.4686 9.02526 18.3287C9.11012 18.1889 9.26655 18.1044 9.43412 18.1079ZM20.5274 21.6876H9.43412C9.26655 21.684 9.11012 21.7685 9.02526 21.9084C8.9404 22.0482 8.9404 22.2216 9.02526 22.3615C9.11012 22.5013 9.26655 22.5858 9.43412 22.5823H20.5274C20.6949 22.5858 20.8514 22.5013 20.9362 22.3615C21.0211 22.2216 21.0211 22.0482 20.9362 21.9084C20.8514 21.7685 20.6949 21.684 20.5274 21.6876Z" fill="#4F75B4"/>
</svg>
