<?xml version="1.0" encoding="utf-8"?>
<!-- Generator: Adobe Illustrator 21.1.0, SVG Export Plug-In . SVG Version: 6.00 Build 0)  -->
<svg version="1.1" id="Layer_1" xmlns="http://www.w3.org/2000/svg" xmlns:xlink="http://www.w3.org/1999/xlink" x="0px" y="0px"
	 viewBox="0 0 52 59" style="enable-background:new 0 0 52 59;" xml:space="preserve">
<style type="text/css">
	.st0{fill:none;}
	.st1{fill:#4f75b4;}
	.st2{fill:#FFFFFF;}
</style>
<title>Building contact details</title>
<desc>Created with Sketch.</desc>
<g id="Page-1">
	<g id="Building-contact-details">
		<rect id="Rectangle" x="10.4" y="8.1" class="st0" width="4.4" height="6.4"/>
		<rect id="Rectangle_1_" x="10.4" y="18.4" class="st0" width="4.4" height="6.4"/>
		<rect id="Rectangle_2_" x="15" y="35.5" class="st0" width="4.3" height="11.3"/>
		<rect id="Rectangle_3_" x="19.5" y="18.4" class="st0" width="4.4" height="6.4"/>
		<rect id="Rectangle_4_" x="19.5" y="8" class="st0" width="4.4" height="6.4"/>
		<rect id="Rectangle_5_" x="31.8" y="18.5" class="st0" width="4.7" height="7.1"/>
		<path id="Shape" class="st1" d="M40.6,46.9V12.8H27.8V0H6.5v46.9H0.1v4.3H47v-4.3H40.6z M31.8,18.5h4.7v7.1h-4.7V18.5z M19.5,8
			h4.4v6.4h-4.4V8z M19.5,18.4h4.4v6.4h-4.4V18.4z M10.4,8.1h4.4v6.4h-4.4V8.1z M10.4,18.4h4.4v6.4h-4.4V18.4z M15,46.9V35.5h4.3
			v11.3H15V46.9z M28.7,46.9V35.5H33v11.3h-4.3V46.9z"/>
		<circle id="Oval" class="st2" cx="38" cy="45" r="14"/>
		<path id="Combined-Shape" class="st1" d="M50,45.5C50,51.9,44.9,57,38.5,57S27,51.9,27,45.5S32.1,34,38.5,34S50,39.1,50,45.5z
			 M43.4,46.9c-1.3-1.3-2.4,0.2-3.2,1c-1.6-0.9-3.3-2.4-4.1-4.1c2.4-2.2,1.9-2.4-0.8-5c-1.3-1.3-2.4,0.3-3.2,1.1
			c-0.4,0.4-0.6,1-0.7,1.5c-0.4,3.9,5.8,10.9,10.7,11.2c1.5,0.1,2-0.7,3.1-1.8c0.6-0.6,0.6-1.6,0-2.2L43.4,46.9z"/>
	</g>
</g>
</svg>
