<svg width="18" height="18" viewBox="0 0 18 18" fill="none" xmlns="http://www.w3.org/2000/svg">
<path fill-rule="evenodd" clip-rule="evenodd" d="M14.3454 1.43857H13.5144V0H11.9501V1.43857H5.6929V0H4.1286V1.43857H3.34645C2.05258 1.43857 1 2.49115 1 3.78502V15.6536C1 16.9474 2.05258 18 3.34645 18H14.3454C15.6393 18 16.6919 16.9474 16.6919 15.6536V3.78502C16.6919 2.49115 15.6393 1.43857 14.3454 1.43857ZM15.1276 15.6536C15.1276 16.0847 14.7768 16.4357 14.541 16.4357H3.54199C2.91509 16.4357 2.5643 16.0847 2.5643 15.6536V6.07222H15.1276V15.6536ZM4.47802 10.0755H9.82969V14.4854H4.47802V10.0755Z" fill="#CCCBCB"/>
</svg>
