<svg width="19" height="16" viewBox="0 0 19 16" fill="none" xmlns="http://www.w3.org/2000/svg">
<path fill-rule="evenodd" clip-rule="evenodd" d="M5.91379 0.814988C8.85977 -0.142623 11.7403 0.0203748 14.3808 1.54848L15.581 0L18.6361 7.29415L11.5657 3.89157L12.9623 2.87283C10.9765 1.97635 8.66337 1.81335 6.52481 2.48571C4.75722 3.03583 3.27332 4.07494 2.22585 5.52155L0.654665 4.54356C1.94217 2.79134 3.7534 1.50773 5.91379 0.814988ZM12.7223 14.8735C9.7763 15.8311 6.89578 15.6681 4.25531 14.14L3.05509 15.7089L0 8.41475L7.07036 11.797L5.67374 12.8157C7.65955 13.7122 9.9727 13.8752 12.1113 13.2028C13.8788 12.6527 15.3628 11.6136 16.4102 10.167L17.9814 11.145C16.6939 12.8972 14.8827 14.1808 12.7223 14.8735Z" fill="#4f75b4"/>
</svg>
