<?xml version="1.0" encoding="utf-8"?>
<!-- Generator: Adobe Illustrator 21.1.0, SVG Export Plug-In . SVG Version: 6.00 Build 0)  -->
<svg version="1.1" id="Layer_1" xmlns="http://www.w3.org/2000/svg" xmlns:xlink="http://www.w3.org/1999/xlink" x="0px" y="0px"
	 viewBox="0 0 50 46" style="enable-background:new 0 0 50 46;" xml:space="preserve">
<style type="text/css">
	.st1{fill:#4f75b4;}
</style>
<title>Group</title>
<desc>Created with Sketch.</desc>
<g id="Page-1" class="st0">
	<g id="r_main" transform="translate(-890.000000, -750.000000)">
		<g id="Group" transform="translate(890.000000, 750.000000)">
			<path id="Path" class="st1" d="M30.5,11.4C30,11,29.1,11,28.7,11.5l-5.4,6.2l-2-2c-0.5-0.5-1.3-0.5-1.8,0c-0.5,0.5-0.5,1.3,0,1.8
				l2.9,2.9c0.2,0.2,0.6,0.4,0.9,0.4c0,0,0,0,0,0c0.4,0,0.7-0.2,0.9-0.4l6.3-7.2C31.1,12.7,31,11.9,30.5,11.4z"/>
			<path id="Shape" class="st1" d="M42.7,32.9c3.2-5.5,7.2-12.7,7.2-17.8c0-6.8-5.5-12.3-12.3-12.3c-1.4,0-2.8,0.2-4,0.7
				c-2.4-1.9-5.3-3-8.6-3s-6.2,1.1-8.6,3c-1.3-0.4-2.6-0.7-4-0.7C5.6,2.7,0.1,8.3,0.1,15c0,5.3,4,12.5,7.2,17.9
				c-3.5,1.3-5.7,3.1-5.7,4.9c0,4.2,10.5,7.6,23.4,7.6s23.4-3.4,23.4-7.6C48.4,35.9,46.3,34.2,42.7,32.9z M14.1,33.7
				c-0.4,0.7-0.8,1.4-1.2,2c-0.1,0.3-0.4,0.3-0.5,0.3s-0.4,0-0.5-0.3c-0.4-0.7-0.8-1.4-1.3-2.2C7.4,28.2,2.7,20.2,2.7,15
				c0-5.4,4.4-9.7,9.7-9.7c0.7,0,1.3,0.1,1.9,0.2c-1.9,2.4-3.1,5.4-3.1,8.7c0,4.4,2.5,10.1,5.3,15.3C15.6,31,14.8,32.4,14.1,33.7z
				 M30.1,30.4c-0.5,1-1.1,1.9-1.6,2.8c0,0,0,0,0,0.1c-0.1,0.2-0.2,0.4-0.3,0.5c-0.2,0.3-0.3,0.5-0.5,0.8c0,0,0,0.1-0.1,0.1
				c-0.2,0.3-0.4,0.6-0.5,0.9c-0.1,0.1-0.2,0.3-0.2,0.4c-0.1,0.2-0.3,0.5-0.4,0.7c0,0,0,0.1-0.1,0.1c0,0,0,0,0,0
				c-0.2,0.4-0.4,0.7-0.6,1.1c0,0,0,0,0,0c0,0.1-0.1,0.1-0.1,0.2c0,0,0,0,0,0c0,0-0.1,0.1-0.1,0.1c0,0,0,0,0,0c0,0-0.1,0-0.2,0.1
				c0,0,0,0,0,0c-0.1,0-0.1,0-0.2,0c-0.1,0-0.1,0-0.2,0c0,0,0,0,0,0c-0.1,0-0.1,0-0.1-0.1c0,0,0,0,0,0c0,0-0.1-0.1-0.1-0.1
				c0,0,0,0,0,0c0,0-0.1-0.1-0.1-0.2c0,0,0,0,0,0c0,0-0.1-0.1-0.1-0.1c-0.2-0.3-0.4-0.6-0.6-1c0-0.1-0.1-0.2-0.1-0.2
				c-0.1-0.2-0.3-0.5-0.4-0.7c-0.1-0.1-0.1-0.2-0.2-0.3l-0.1-0.1c-0.9-1.4-1.9-3.1-2.9-4.9c-0.2-0.3-0.3-0.6-0.5-0.9
				c-2.8-5.1-5.7-11.1-5.7-15.3c0-3,1.2-5.8,3.2-7.8c0.5-0.5,1.1-1,1.7-1.4c0,0,0,0,0,0c0.1-0.1,0.3-0.2,0.4-0.3c0,0,0,0,0,0
				c0,0,0,0,0,0c0.1-0.1,0.3-0.2,0.4-0.3c0,0,0,0,0,0c0.1-0.1,0.3-0.2,0.4-0.2c0,0,0,0,0,0c0.1-0.1,0.3-0.1,0.4-0.2c0,0,0,0,0.1,0
				c0.1-0.1,0.3-0.1,0.4-0.2c0,0,0.1,0,0.1,0c0.1-0.1,0.3-0.1,0.4-0.1c0,0,0.1,0,0.1,0c0.1,0,0.3-0.1,0.4-0.1c0,0,0.1,0,0.1,0
				c0.1,0,0.3-0.1,0.4-0.1c0.1,0,0.1,0,0.2,0c0.1,0,0.3,0,0.4-0.1c0.1,0,0.1,0,0.2,0c0.1,0,0.3,0,0.4-0.1c0.1,0,0.1,0,0.2,0
				c0.1,0,0.3,0,0.4,0c0.1,0,0.1,0,0.2,0c0.2,0,0.4,0,0.6,0s0.4,0,0.6,0c0.1,0,0.1,0,0.2,0c0.1,0,0.3,0,0.4,0c0.1,0,0.1,0,0.2,0
				c0.1,0,0.3,0,0.4,0.1c0.1,0,0.1,0,0.2,0c0.1,0,0.3,0,0.4,0.1c0.1,0,0.1,0,0.2,0c0.1,0,0.3,0.1,0.4,0.1c0,0,0.1,0,0.1,0
				c0.1,0,0.3,0.1,0.4,0.1c0,0,0.1,0,0.1,0c0.1,0,0.3,0.1,0.4,0.1c0,0,0.1,0,0.1,0c0.1,0.1,0.3,0.1,0.4,0.2c0,0,0,0,0.1,0
				C29.7,4,29.8,4.1,30,4.1c0,0,0,0,0,0c0.2,0.1,0.3,0.2,0.4,0.2c0,0,0,0,0,0c0.2,0.1,0.3,0.2,0.4,0.3c0,0,0,0,0,0c0,0,0,0,0,0
				c0.1,0.1,0.3,0.2,0.4,0.3c0,0,0,0,0,0c0.6,0.4,1.2,0.9,1.7,1.4c2,2,3.2,4.8,3.2,7.8c0,4.1-2.8,10.1-5.7,15.3
				C30.4,29.8,30.2,30.1,30.1,30.4z M38.1,35.6c-0.1,0.3-0.4,0.3-0.5,0.3c-0.1,0-0.4,0-0.5-0.3c-0.4-0.7-0.8-1.4-1.3-2.2
				c-0.7-1.2-1.5-2.5-2.3-4c2.8-5.2,5.3-10.9,5.3-15.3c0-3.3-1.2-6.3-3.1-8.7c0.6-0.1,1.3-0.2,1.9-0.2c5.4,0,9.7,4.4,9.7,9.7
				c0,5.1-4.8,13.3-8,18.7C38.9,34.4,38.5,35,38.1,35.6z"/>
		</g>
	</g>
</g>
</svg>
