<svg width="24" height="24" viewBox="0 0 24 24" fill="none" xmlns="http://www.w3.org/2000/svg">
<path fill-rule="evenodd" clip-rule="evenodd" d="M15.2 15.2C15.2 15.64 14.84 16 14.4 16C13.96 16 13.6 15.64 13.6 15.2V12C13.6 11.56 13.96 11.2 14.4 11.2C14.84 11.2 15.2 11.56 15.2 12V15.2ZM10.4 5.8624C10.4 5.7384 10.5712 5.6 10.8 5.6H13.2C13.4288 5.6 13.6 5.7384 13.6 5.8624V7.2H10.4V5.8624ZM10.4 15.2C10.4 15.64 10.04 16 9.6 16C9.16 16 8.8 15.64 8.8 15.2V12C8.8 11.56 9.16 11.2 9.6 11.2C10.04 11.2 10.4 11.56 10.4 12V15.2ZM19.2 7.2H18.4H15.2V5.8624C15.2 4.8352 14.3032 4 13.2 4H10.8C9.6968 4 8.8 4.8352 8.8 5.8624V7.2H5.6H4.8C4.36 7.2 4 7.56 4 8C4 8.44 4.36 8.8 4.8 8.8H5.6V17.6C5.6 18.9232 6.6768 20 8 20H16C17.3232 20 18.4 18.9232 18.4 17.6V8.8H19.2C19.64 8.8 20 8.44 20 8C20 7.56 19.64 7.2 19.2 7.2Z" fill="#F46200"/>
<mask id="mask0" mask-type="alpha" maskUnits="userSpaceOnUse" x="4" y="4" width="16" height="16">
<path fill-rule="evenodd" clip-rule="evenodd" d="M15.2 15.2C15.2 15.64 14.84 16 14.4 16C13.96 16 13.6 15.64 13.6 15.2V12C13.6 11.56 13.96 11.2 14.4 11.2C14.84 11.2 15.2 11.56 15.2 12V15.2ZM10.4 5.8624C10.4 5.7384 10.5712 5.6 10.8 5.6H13.2C13.4288 5.6 13.6 5.7384 13.6 5.8624V7.2H10.4V5.8624ZM10.4 15.2C10.4 15.64 10.04 16 9.6 16C9.16 16 8.8 15.64 8.8 15.2V12C8.8 11.56 9.16 11.2 9.6 11.2C10.04 11.2 10.4 11.56 10.4 12V15.2ZM19.2 7.2H18.4H15.2V5.8624C15.2 4.8352 14.3032 4 13.2 4H10.8C9.6968 4 8.8 4.8352 8.8 5.8624V7.2H5.6H4.8C4.36 7.2 4 7.56 4 8C4 8.44 4.36 8.8 4.8 8.8H5.6V17.6C5.6 18.9232 6.6768 20 8 20H16C17.3232 20 18.4 18.9232 18.4 17.6V8.8H19.2C19.64 8.8 20 8.44 20 8C20 7.56 19.64 7.2 19.2 7.2Z" fill="white"/>
</mask>
<g mask="url(#mask0)">
</g>
</svg>
