<?xml version="1.0" encoding="utf-8"?>
<!-- Generator: Adobe Illustrator 21.1.0, SVG Export Plug-In . SVG Version: 6.00 Build 0)  -->
<svg version="1.1" id="Layer_1" xmlns="http://www.w3.org/2000/svg" xmlns:xlink="http://www.w3.org/1999/xlink" x="0px" y="0px"
	 viewBox="0 0 63 40" style="enable-background:new 0 0 63 40;" xml:space="preserve">
<style type="text/css">
	.st1{fill:#4f75b4;}
</style>
<title>Shape</title>
<desc>Created with Sketch.</desc>
<g id="Page-1" class="st0">
	<g id="main" transform="translate(-787.000000, -751.000000)">
		<path id="Shape" class="st1" d="M834,756.9h-11.4c-0.6,0-1.1-0.5-1.1-1.1v-0.7c0-2.3-1.9-4.2-4.2-4.2h-26.1
			c-2.3,0-4.2,1.9-4.2,4.2v24.2c0,2.3,1.9,4.2,4.2,4.2h1c0,3.9,3.2,7.1,7.1,7.1s7.1-3.2,7.1-7.1h22.4c0,3.9,3.2,7.1,7.1,7.1
			s7.1-3.2,7.1-7.1h5.8c0.6,0,1.1-0.5,1.1-1.1V773c0-0.3-0.1-0.6-0.3-0.8l-14.9-14.9C834.6,757.1,834.3,756.9,834,756.9z
			 M803.7,783.6c0,2.4-2,4.3-4.3,4.3c-2.4,0-4.3-2-4.3-4.3s2-4.3,4.3-4.3C801.8,779.2,803.7,781.2,803.7,783.6z M840.4,783.6
			c0,2.4-2,4.3-4.3,4.3c-2.4,0-4.3-2-4.3-4.3s2-4.3,4.3-4.3C838.4,779.2,840.4,781.2,840.4,783.6z M844.8,773.4h-17.1
			c-0.6,0-1.1-0.5-1.1-1.1v-11.4c0-0.6,0.5-1.1,1.1-1.1h5.7c0.3,0,0.6,0.1,0.8,0.3l11.4,11.4c0.2,0.2,0.3,0.5,0.3,0.8
			C845.8,772.9,845.4,773.4,844.8,773.4z"/>
	</g>
</g>
</svg>
