<?xml version="1.0" encoding="utf-8"?>
<!-- Generator: Adobe Illustrator 21.1.0, SVG Export Plug-In . SVG Version: 6.00 Build 0)  -->
<svg version="1.1" id="Layer_1" xmlns="http://www.w3.org/2000/svg" xmlns:xlink="http://www.w3.org/1999/xlink" x="0px" y="0px"
	 viewBox="0 0 56 35" style="enable-background:new 0 0 56 35;" xml:space="preserve">
<style type="text/css">
	.st1{fill:#4f75b4;}
</style>
<title>Shape</title>
<desc>Created with Sketch.</desc>
<g id="Page-1" class="st0">
	<g id="main" transform="translate(-985.000000, -363.000000)">
		<path id="Shape" class="st1" d="M987.7,363h46.4l-22.2,18c-0.8,0.4-1.3,0.4-2,0L987.7,363z M985,366.1c7.8,6,15.2,12.7,23,18.6
			c1.9,0.9,4.1,0.9,5.9,0c7.7-6.1,15.3-12.4,23-18.6v10.2c-1.5-0.6-3.1-0.9-4.8-0.9c-7.1,0-13,5.8-13,13c0,1.7,0.3,3.3,0.9,4.8h-33
			c-1.1,0-1.5-0.2-1.7-0.4c-0.2-0.2-0.4-0.6-0.4-1.6V366.1z M1032.1,379.4c4.9,0,8.9,4,8.9,8.9c0,4.9-4,8.9-8.9,8.9s-8.9-4-8.9-8.9
			C1023.2,383.3,1027.2,379.4,1032.1,379.4z M1032.1,380c-1.1,0-2,1-2,2.1v4.1c-1.4,0-2.9,0-4.3,0c-1.1,0.1-2,1.1-1.9,2.2
			c0.1,1.1,1.1,2,2.2,1.9h4.1v4.1c0,1.1,1,2.1,2,2.1s2.1-1,2-2.1v-4.1h4.1c1.1,0,2.1-1,2.1-2c0-1.1-1-2.1-2.1-2h-4.1v-4.1
			C1034.2,381,1033.2,380,1032.1,380z"/>
	</g>
</g>
</svg>
