<?xml version="1.0" encoding="utf-8"?>
<!-- Generator: Adobe Illustrator 21.1.0, SVG Export Plug-In . SVG Version: 6.00 Build 0)  -->
<svg version="1.1" id="Layer_1" xmlns="http://www.w3.org/2000/svg" xmlns:xlink="http://www.w3.org/1999/xlink" x="0px" y="0px"
	 viewBox="0 0 42 51" style="enable-background:new 0 0 42 51;" xml:space="preserve">
<style type="text/css">
	.st1{fill:#4f75b4;}
</style>
<title>Shape</title>
<desc>Created with Sketch.</desc>
<g id="Page-1" class="st0">
	<g id="main" transform="translate(-603.000000, -350.000000)">
		<path id="Shape" class="st1" d="M630.3,379.4h-10.5v-10.2l9.2,7.6c0.4,0.3,0.9,0.5,1.3,0.5c0.5,0,1-0.2,1.3-0.5l9.2-7.6v10.2
			H630.3z M617.7,392c-1.2,0-2.1-0.9-2.1-2.1c0-1.2,0.9-2.1,2.1-2.1s2.1,0.9,2.1,2.1C619.8,391.1,618.9,392,617.7,392z M637.1,366.8
			l-6.8,5.7l-6.8-5.7h6.8H637.1z M645,364.7c0-0.2,0-0.5-0.1-0.7c0,0,0,0,0-0.1c0-0.1-0.1-0.1-0.1-0.2c-0.1-0.2-0.2-0.3-0.3-0.4
			c-0.1-0.1-0.1-0.1-0.2-0.2c-0.1-0.1-0.3-0.2-0.4-0.3c-0.1,0-0.1-0.1-0.2-0.1c-0.2-0.1-0.5-0.1-0.7-0.1h-10.5v-6.3
			c0-3.5-2.8-6.3-6.3-6.3h-16.8c-3.5,0-6.3,2.8-6.3,6.3v2.1h8.4c1.2,0,2.1,0.9,2.1,2.1s-0.9,2.1-2.1,2.1H603v31.5
			c0,3.5,2.8,6.3,6.3,6.3h16.8c3.5,0,6.3-2.8,6.3-6.3v-10.5h10.5c1.2,0,2.1-0.9,2.1-2.1L645,364.7C645,364.7,645,364.7,645,364.7z"
			/>
	</g>
</g>
</svg>
