<svg width="19" height="18" viewBox="0 0 19 18" fill="none" xmlns="http://www.w3.org/2000/svg">
<path fill-rule="evenodd" clip-rule="evenodd" d="M17.9545 1.63636H11.1909V0.818182C11.1909 0.365727 10.813 0 10.3455 0H8.65454C8.18701 0 7.80909 0.365727 7.80909 0.818182V1.63636H1.04545C0.577915 1.63636 0.199997 2.00209 0.199997 2.45455V12.2727C0.199997 12.7252 0.577915 13.0909 1.04545 13.0909H17.9545C18.4221 13.0909 18.8 12.7252 18.8 12.2727V2.45455C18.8 2.00209 18.4221 1.63636 17.9545 1.63636ZM1.89091 3.27273H7.80909V4.90909H1.89091V3.27273ZM1.89091 11.4545H17.1091V9.81818H1.89091V11.4545ZM17.1091 8.18182H1.89091V6.54545H17.1091V8.18182ZM3.58182 16.3636H7.80909V13.9091H11.1909V16.3636H15.4182V18H3.58182V16.3636Z" fill="#212121"/>
</svg>
