<svg width="18" height="17" viewBox="0 0 18 17" fill="none" xmlns="http://www.w3.org/2000/svg">
<path fill-rule="evenodd" clip-rule="evenodd" d="M9 12.0417C9.28966 12.0417 9.6 11.9 9.8069 11.6976L13.9448 7.58929C14.3793 7.14405 14.3793 6.43571 13.9241 6.01071C13.469 5.58571 12.7448 5.58571 12.3103 6.03095L10.1379 8.19643V1.1131C10.1379 0.505952 9.62069 0 9 0C8.37931 0 7.86207 0.505952 7.86207 1.1131V8.19643L5.68966 6.03095C5.25517 5.58571 4.53103 5.58571 4.07586 6.01071C3.84828 6.23333 3.72414 6.49643 3.72414 6.8C3.72414 7.10357 3.84828 7.3869 4.05517 7.58929L8.1931 11.6976C8.4 11.9202 8.68966 12.0417 9 12.0417ZM15.7241 10.7869C15.7241 10.1798 16.2414 9.67381 16.8621 9.67381C17.4828 9.67381 18 10.1595 18 10.7869V15.8869C18 16.494 17.4828 17 16.8621 17H1.13793C0.517241 17 0 16.494 0 15.8869V10.7869C0 10.1798 0.517241 9.67381 1.13793 9.67381C1.75862 9.67381 2.27586 10.1798 2.27586 10.7869V14.7738H15.7241V10.7869Z" fill="#4f75b4"/>
</svg>
