<svg width="23" height="28" viewBox="0 0 23 28" fill="none" xmlns="http://www.w3.org/2000/svg">
<g opacity="0.5" filter="url(#filter0_d)">
<path fill-rule="evenodd" clip-rule="evenodd" d="M7.76931 4.87444H15.3951C15.6922 4.87444 15.9331 4.64133 15.9331 4.35378C15.9331 4.06622 15.6922 3.83378 15.3951 3.83378H15.2486C15.2486 2.45022 14.4304 1.25333 13.2375 0.667778L12.9337 2.33511C12.9098 2.46711 12.7909 2.56 12.657 2.56C12.6411 2.56 12.6241 2.55867 12.6076 2.55578C12.4549 2.52933 12.3529 2.38844 12.3805 2.24067L12.727 0.336222C12.5975 0.134222 12.3665 0 12.1027 0H11.0617C10.7981 0 10.5676 0.134222 10.4376 0.335778L10.7841 2.24022C10.8114 2.38822 10.7095 2.52889 10.5566 2.55533C10.5403 2.558 10.5237 2.55956 10.5072 2.55956C10.3733 2.55956 10.2546 2.46689 10.2307 2.33467L9.92668 0.667778C8.73375 1.25289 7.91581 2.45 7.91581 3.83356H7.76931C7.47194 3.83356 7.23152 4.066 7.23152 4.35356C7.23152 4.64111 7.47194 4.87444 7.76931 4.87444ZM15.1978 5.576C14.8865 7.99956 13.3863 9.83756 11.5823 9.83756C9.77811 9.83756 8.27794 7.99956 7.96703 5.576H15.1978ZM11.5825 10.9778C13.1895 10.9778 14.4947 10.29 14.514 9.43778C16.9733 9.65533 18.899 11.6558 18.899 14.0918C18.899 16.2991 17.3173 16.6142 15.1919 16.6591C15.912 15.3633 16.0215 14.1527 15.3533 13.5009C15.32 13.4682 15.2849 13.4327 15.2493 13.3956C14.9544 13.0929 14.4672 12.5929 13.7298 12.5929C13.1918 12.5929 12.6976 12.8573 12.2611 13.3796C11.3265 14.4964 11.561 15.2638 12.0156 15.8233C11.9001 15.9707 11.7104 16.1853 11.3977 16.4858C11.3288 16.5518 11.2647 16.6116 11.2043 16.6667H9.0952H9.07532C6.41708 16.6667 4.26562 16.6667 4.26562 14.0916C4.26562 11.6558 6.19199 9.65533 8.65109 9.43778C8.67015 10.29 9.97514 10.9778 11.5825 10.9778ZM14.6887 13.8994L14.6897 13.9004C14.7303 13.9429 14.7707 13.984 14.8098 14.0222C15.4077 14.6056 14.8465 16.4358 13.085 18.1296C11.6468 19.51 10.2739 20 9.53516 20C9.22654 20 8.98198 19.92 8.82836 19.7698C8.78886 19.7309 8.74707 19.692 8.70275 19.6518L8.69857 19.6479C8.43451 19.4019 8.10673 19.0965 8.12546 18.6911C8.13878 18.4104 8.31284 18.1447 8.65912 17.8771C9.06143 17.5662 9.38062 17.4209 9.66054 17.4209C10.0167 17.4209 10.2472 17.6489 10.47 17.8693L10.54 17.9382L10.5405 17.9387C10.5468 17.9445 10.5569 17.954 10.5924 17.954C10.7017 17.954 11.0509 17.8622 11.9369 17.0116C12.3109 16.6529 12.5826 16.348 12.7468 16.1058C12.9137 15.8602 12.9458 15.7056 12.905 15.666L12.8342 15.5978C12.3656 15.1467 12.093 14.7576 12.8561 13.8453C13.1442 13.5009 13.4297 13.3333 13.73 13.3333C14.1366 13.3333 14.4424 13.6469 14.6887 13.8994Z" fill="#4F75B4"/>
</g>
<defs>
<filter id="filter0_d" x="0.265625" y="0" width="22.6334" height="28" filterUnits="userSpaceOnUse" color-interpolation-filters="sRGB">
<feFlood flood-opacity="0" result="BackgroundImageFix"/>
<feColorMatrix in="SourceAlpha" type="matrix" values="0 0 0 0 0 0 0 0 0 0 0 0 0 0 0 0 0 0 127 0"/>
<feOffset dy="4"/>
<feGaussianBlur stdDeviation="2"/>
<feColorMatrix type="matrix" values="0 0 0 0 0 0 0 0 0 0 0 0 0 0 0 0 0 0 0.25 0"/>
<feBlend mode="normal" in2="BackgroundImageFix" result="effect1_dropShadow"/>
<feBlend mode="normal" in="SourceGraphic" in2="effect1_dropShadow" result="shape"/>
</filter>
</defs>
</svg>
