<svg width="18" height="18" viewBox="0 0 18 18" fill="none" xmlns="http://www.w3.org/2000/svg">
<path fill-rule="evenodd" clip-rule="evenodd" d="M9 0C9.28966 0 9.6 0.144828 9.8069 0.351724L13.9448 4.55172C14.3793 5.0069 14.3793 5.73103 13.9241 6.16552C13.469 6.6 12.7448 6.6 12.3103 6.14483L10.1379 3.93103V11.1724C10.1379 11.7931 9.62069 12.3103 9 12.3103C8.37931 12.3103 7.86207 11.7931 7.86207 11.1724V3.93103L5.68966 6.14483C5.25517 6.6 4.53103 6.6 4.07586 6.16552C3.84828 5.93793 3.72414 5.66897 3.72414 5.35862C3.72414 5.04828 3.84828 4.75862 4.05517 4.55172L8.1931 0.351724C8.4 0.124138 8.68966 0 9 0ZM15.7241 11.0276C15.7241 10.4069 16.2414 9.88966 16.8621 9.88966C17.4828 9.88966 18 10.3862 18 11.0276V16.2414C18 16.8621 17.4828 17.3793 16.8621 17.3793H1.13793C0.517241 17.3793 0 16.8621 0 16.2414V11.0276C0 10.4069 0.517241 9.88966 1.13793 9.88966C1.75862 9.88966 2.27586 10.4069 2.27586 11.0276V15.1034H15.7241V11.0276Z" fill="#CCCBCB"/>
</svg>
