<?xml version="1.0" encoding="utf-8"?>
<!-- Generator: Adobe Illustrator 21.1.0, SVG Export Plug-In . SVG Version: 6.00 Build 0)  -->
<svg version="1.1" id="Layer_1" xmlns="http://www.w3.org/2000/svg" xmlns:xlink="http://www.w3.org/1999/xlink" x="0px" y="0px"
	 viewBox="0 0 44 42" style="enable-background:new 0 0 44 42;" xml:space="preserve">
<style type="text/css">
	.st1{fill:#4f75b4;}
</style>
<title>Combined Shape</title>
<desc>Created with Sketch.</desc>
<g id="Page-1" class="st0">
	<g id="main" transform="translate(-407.000000, -549.000000)">
		<path id="Combined-Shape" class="st1" d="M449.5,549c0.8,0,1.5,0.7,1.5,1.5v15.9c0,0.8-0.7,1.5-1.5,1.5h-17
			c-0.8,0-1.5-0.7-1.5-1.5v-15.9c0-0.8,0.7-1.5,1.5-1.5H449.5z M446.9,557.2v-4.1h-11.8v4.1H446.9z M425.5,549
			c0.8,0,1.5,0.7,1.5,1.5v15.9c0,0.8-0.7,1.5-1.5,1.5h-17c-0.8,0-1.5-0.7-1.5-1.5v-15.9c0-0.8,0.7-1.5,1.5-1.5H425.5z M422.9,557.2
			v-4.1h-11.8v4.1H422.9z M449.5,571.9c0.8,0,1.5,0.7,1.5,1.5v15.9c0,0.8-0.7,1.5-1.5,1.5h-17c-0.8,0-1.5-0.7-1.5-1.5v-15.9
			c0-0.8,0.7-1.5,1.5-1.5H449.5z M446.9,580.1V576h-11.8v4.1H446.9z M425.5,571.9c0.8,0,1.5,0.7,1.5,1.5v15.9c0,0.8-0.7,1.5-1.5,1.5
			h-17c-0.8,0-1.5-0.7-1.5-1.5v-15.9c0-0.8,0.7-1.5,1.5-1.5H425.5z M422.9,580.1V576h-11.8v4.1H422.9z"/>
	</g>
</g>
</svg>
