<?xml version="1.0" encoding="utf-8"?>
<!-- Generator: Adobe Illustrator 21.1.0, SVG Export Plug-In . SVG Version: 6.00 Build 0)  -->
<svg version="1.1" id="Layer_1" xmlns="http://www.w3.org/2000/svg" xmlns:xlink="http://www.w3.org/1999/xlink" x="0px" y="0px"
	 viewBox="0 0 46 46" style="enable-background:new 0 0 46 46;" xml:space="preserve">
<style type="text/css">
	.st1{fill:#4f75b4;}
</style>
<title>Shape</title>
<desc>Created with Sketch.</desc>
<g id="Page-1" class="st0">
	<g id="main" transform="translate(-406.000000, -742.000000)">
		<path id="Shape" class="st1" d="M429,742c-12.7,0-23,10.3-23,23s10.3,23,23,23s23-10.3,23-23S441.7,742,429,742z M432.5,775.1
			c0,1.4-1,2.4-2.4,2.4h-2.2c-1.4,0-2.4-1-2.4-2.4v-13.2c0-1.4,1-2.4,2.4-2.4h2.2c1.4,0,2.4,1,2.4,2.4V775.1z M432.5,754.6
			c0,1.4-1,2.4-2.4,2.4h-2.2c-1.4,0-2.4-1-2.4-2.4v-2.2c0-1.4,1-2.4,2.4-2.4h2.2c1.4,0,2.4,1,2.4,2.4V754.6z"/>
	</g>
</g>
</svg>
