<?xml version="1.0" encoding="utf-8"?>
<!-- Generator: Adobe Illustrator 21.1.0, SVG Export Plug-In . SVG Version: 6.00 Build 0)  -->
<svg version="1.1" id="Layer_1" xmlns="http://www.w3.org/2000/svg" xmlns:xlink="http://www.w3.org/1999/xlink" x="0px" y="0px"
	 viewBox="0 0 50 48" style="enable-background:new 0 0 50 48;" xml:space="preserve">
<style type="text/css">
	.st0{fill:#4f75b4;;enable-background:new    ;}
	.st1{fill:#FFFFFF;}
	.st2{font-family:'Montserrat-Medium';}
	.st3{font-size:15px;}
</style>
<title>Group</title>
<desc>Created with Sketch.</desc>
<g id="Page-1">
	<g id="main" transform="translate(-601.000000, -547.000000)">
		<g id="Group" transform="translate(601.000000, 547.000000)">
			<path id="Shape" class="st0" d="M5.8,18.8c1.5-1,3.4-1,4.8,0l4.4,3c1.2,0.8,2.7,0.5,3.5-0.6l5.9-8.1c0.8-1.1,2.2-1.8,3.6-1.8
				c1.4,0,2.7,0.7,3.5,1.9l3.4,4.9c0.3,0,0.5,0,0.8,0c0.3,0,0.6,0,0.9,0V3.2c0-0.8-0.3-1.6-0.9-2.2s-1.4-0.9-2.2-0.9H3.2
				C2.4,0.1,1.6,0.4,1,1S0.1,2.4,0.1,3.2l0,19.7L5.8,18.8C5.9,18.9,5.8,18.9,5.8,18.8z M14.3,4.1c2.1,0,4,1.3,4.9,3.2
				s0.4,4.2-1.1,5.7s-3.8,2-5.7,1.1S9,11.5,9,9.4C9,6.5,11.4,4.1,14.3,4.1L14.3,4.1z"/>
			<circle id="Oval" class="st0" cx="14.3" cy="9.4" r="3.5"/>
			<path id="Path" class="st0" d="M44.9,9.7c0-1.7-1.4-3.2-3.1-3.2h-3.1v11.8c2.3,0.4,4.4,1.2,6.2,2.6V9.7z"/>
			<path id="Path_1_" class="st0" d="M33.1,18.3l-2.9-4.1c-0.5-0.7-1.3-1.1-2.1-1.1s-1.6,0.4-2.1,1.1l-5.9,8.1c-1.4,1.9-4,2.4-6,1.1
				l-4.4-3c-0.9-0.6-2-0.6-2.8,0l-6.8,4.7v0.6c0,0.8,0.3,1.6,0.9,2.2s1.4,0.9,2.2,0.9H21C22.8,23.4,27.5,19.3,33.1,18.3z"/>
			<path id="Path_2_" class="st0" d="M7.6,30.6l0,1.5c0,0.8,0.3,1.6,0.9,2.2s1.4,0.9,2.2,0.9h9.6c0-0.6-0.1-1-0.1-1.5
				c0-1.1,0.1-2.1,0.3-3.2H7.6z"/>
			<path id="Shape_1_" class="st0" d="M35.9,20C28.2,20,22,26.2,22,33.9s6.2,13.9,13.9,13.9c7.7,0,13.9-6.2,13.9-13.9
				C49.9,26.2,43.6,20,35.9,20z"/>
			<text transform="matrix(1 0 0 1 30 38)" class="st1 st2 st3">A</text>
		</g>
	</g>
</g>
</svg>
