<?xml version="1.0" encoding="utf-8"?>
<!-- Generator: Adobe Illustrator 21.1.0, SVG Export Plug-In . SVG Version: 6.00 Build 0)  -->
<svg version="1.1" id="Layer_1" xmlns="http://www.w3.org/2000/svg" xmlns:xlink="http://www.w3.org/1999/xlink" x="0px" y="0px"
	 viewBox="0 0 40 45" style="enable-background:new 0 0 40 45;" xml:space="preserve">
<style type="text/css">
	.st0{fill:#4f75b4;}
</style>
<title>Shape</title>
<desc>Created with Sketch.</desc>
<g id="Page-1">
	<g id="main" transform="translate(-1080.000000, -549.000000)">
		<path id="Shape" class="st0" d="M1108.9,553.4v-2.2c0-1.2,1-2.2,2.2-2.2s2.2,1,2.2,2.2v2.2c3.7,0,6.7,3,6.7,6.7v26.7
			c0,3.7-3,6.7-6.7,6.7h-26.7c-3.7,0-6.7-3-6.7-6.7v-26.7c0-3.7,3-6.7,6.7-6.7v-2.2c0-1.2,1-2.2,2.2-2.2s2.2,1,2.2,2.2v2.2H1108.9z
			 M1115.6,562.3v2.2h-31.1v22.2c0,1.2,1,2.2,2.2,2.2h26.7c1.2,0,2.2-1,2.2-2.2V562.3z M1088.9,569h8.9v8.9h-8.9V569z"/>
	</g>
</g>
</svg>
