<svg width="24" height="24" viewBox="0 0 24 24" fill="none" xmlns="http://www.w3.org/2000/svg">
<path fill-rule="evenodd" clip-rule="evenodd" d="M5.40609 18.6447C5.6599 18.8985 5.98985 19.0254 6.29442 19.0254C6.59898 19.0254 6.95431 18.8985 7.18274 18.6447L12.5127 13.3147L17.8426 18.6447C18.0964 18.8985 18.4264 19.0254 18.731 19.0254C19.0355 19.0254 19.3909 18.8985 19.6193 18.6447C20.1269 18.1371 20.1269 17.3503 19.6193 16.8426L14.2893 11.5127L19.6193 6.18274C20.1269 5.67513 20.1269 4.88832 19.6193 4.38071C19.1117 3.8731 18.3249 3.8731 17.8173 4.38071L12.4873 9.71066L7.18274 4.43147C6.67513 3.92386 5.88832 3.92386 5.38071 4.43147C4.8731 4.93909 4.8731 5.72589 5.38071 6.2335L10.7107 11.5635L5.40609 16.868C4.89848 17.3503 4.89848 18.1624 5.40609 18.6447Z" fill="#CCCBCB"/>
</svg>
