<svg width="16" height="16" viewBox="0 0 16 16" fill="none" xmlns="http://www.w3.org/2000/svg">
<path fill-rule="evenodd" clip-rule="evenodd" d="M12.6649 0.576702L15.4029 3.3147L15.4039 3.3157C16.1689 4.0817 16.1999 5.2997 15.4719 6.0297L6.4749 15.0267C6.1499 15.3517 5.7189 15.5527 5.2609 15.5947L1.0909 15.9737C1.0609 15.9767 1.0309 15.9777 0.999896 15.9777C0.736896 15.9777 0.481896 15.8737 0.292896 15.6847C0.082896 15.4747 -0.022104 15.1827 0.00389602 14.8877L0.382896 10.7177C0.424896 10.2607 0.626896 9.8287 0.952896 9.5037L9.9489 0.507702C10.6509 -0.197298 11.9239 -0.162298 12.6649 0.576702ZM9.3239 3.9617L12.0189 6.6567L13.9659 4.7067L11.2719 2.0127L9.3239 3.9617Z" fill="#F46200"/>
</svg>
