<svg width="20" height="23" viewBox="0 0 20 23" fill="none" xmlns="http://www.w3.org/2000/svg">
<path fill-rule="evenodd" clip-rule="evenodd" d="M0.275965 1.94549C2.46366 1.41645 4.65036 0.883546 6.83605 0.346779C7.13027 0.274458 7.42233 0.194274 7.71396 0.114209C7.85326 0.075965 7.99247 0.0377476 8.13176 0.000427246H8.17468C8.17089 0.238254 8.16681 0.476042 8.16274 0.713814C8.15345 1.25655 8.14417 1.7992 8.1382 2.34206C8.09413 6.36838 8.05122 10.3947 8.00944 14.421C7.98741 16.7924 7.96466 19.1638 7.9412 21.5352C7.94034 21.6274 7.93417 21.7206 7.9276 21.8197C7.9243 21.8695 7.9209 21.9208 7.91802 21.9742C7.88409 21.9648 7.85378 21.9568 7.82595 21.9494C7.77143 21.9349 7.72645 21.9229 7.6824 21.9082C5.22003 21.0684 2.75565 20.2348 0.289269 19.4073C0.0862651 19.3391 0.0407715 19.2408 0.0407715 19.0421C0.0473523 15.7322 0.0537901 12.422 0.0600848 9.11159C0.0672379 6.82575 0.0728173 4.54006 0.076823 2.2545C0.076823 2.103 0.0858359 1.99184 0.275965 1.94549ZM6.51802 11.5592C6.70644 11.8056 7.01416 11.8197 7.22575 11.6051L7.22618 11.6047C7.5176 11.3107 7.52446 10.7021 7.22575 10.4146C7.16322 10.3542 7.0795 10.3158 7.01591 10.2865C6.99222 10.2757 6.97133 10.2661 6.95536 10.2571C6.64034 10.2708 6.49871 10.4253 6.4103 10.6313C6.27038 10.9584 6.30043 11.2755 6.51802 11.5592Z" fill="black"/>
<path d="M14.6815 8.07597C14.6853 8.30001 14.6119 8.34121 14.4008 8.33992C12.8117 8.33076 11.2218 8.32619 9.63126 8.32619H9.31323V13.6579C9.39907 13.6618 9.48104 13.6687 9.56388 13.6687C11.1679 13.6687 12.7723 13.6687 14.3772 13.6687C14.6776 13.6687 14.6776 13.6687 14.6776 13.9755C14.6776 14.6774 14.6776 15.3793 14.6776 16.0811V16.2828C16.4373 14.5159 18.2119 12.7601 19.96 11.018L14.678 5.7352C14.678 6.51674 14.6677 7.29614 14.6815 8.07597Z" fill="black"/>
<path d="M12.1052 2.52874C12.2966 2.52874 12.3653 2.57424 12.3627 2.77853C12.3533 4.08239 12.3597 5.38668 12.3597 6.69098V7.13132C12.7031 7.13132 13.0511 7.1369 13.3898 7.12188C13.4224 7.12188 13.4756 6.99012 13.4756 6.91887C13.482 6.10943 13.4803 5.29956 13.4803 4.49012C13.4803 3.54448 13.4803 2.5987 13.4803 1.65278C13.4803 1.52402 13.4803 1.42274 13.294 1.42402C11.9902 1.43132 10.6859 1.42789 9.38203 1.42874C9.34509 1.4303 9.30827 1.43388 9.27173 1.43947V2.53218H9.52924C10.3863 2.53218 11.2447 2.53776 12.1052 2.52874Z" fill="black"/>
<path d="M13.2497 14.8498C12.9587 14.8614 12.6609 14.8528 12.3604 14.8528V18.7554H9.09863V19.8837C9.18447 19.8876 9.22996 19.8944 9.29262 19.8944C10.6098 19.8944 11.9257 19.8906 13.2411 19.8996C13.4355 19.8996 13.4806 19.8404 13.4797 19.6575C13.4737 18.1325 13.4737 16.6076 13.4797 15.0828C13.4836 14.9026 13.4261 14.8446 13.2497 14.8498Z" fill="black"/>
</svg>
