<?xml version="1.0" encoding="utf-8"?>
<!-- Generator: Adobe Illustrator 21.1.0, SVG Export Plug-In . SVG Version: 6.00 Build 0)  -->
<svg version="1.1" id="Layer_1" xmlns="http://www.w3.org/2000/svg" xmlns:xlink="http://www.w3.org/1999/xlink" x="0px" y="0px"
	 viewBox="0 0 61 61" style="enable-background:new 0 0 61 61;" xml:space="preserve">
<style type="text/css">
	.st1{fill:#4f75b4;}
</style>
<title>Group</title>
<desc>Created with Sketch.</desc>
<g id="Page-1" class="st0">
	<g id="Group">
		<path id="Shape" class="st1" d="M44.2,5.6h-3.3v5.1c0,2.1-1.7,3.8-3.8,3.8s-3.8-1.7-3.8-3.8V5.6H18.8v5.1c0,2.1-1.7,3.8-3.8,3.8
			s-3.8-1.7-3.8-3.8V5.6H8c-4,0-7.3,3.3-7.3,7.3v38c0,4,3.3,7.3,7.3,7.3h27.6c-2.8-3-4.5-7-4.5-11.4c0-9.2,7.5-16.7,16.7-16.7
			c1.3,0,2.6,0.2,3.8,0.4V12.9C51.5,8.9,48.2,5.6,44.2,5.6z M22,46H6.4c-1,0-1.7-0.8-1.7-1.7c0-1,0.8-1.7,1.7-1.7H22
			c1,0,1.7,0.8,1.7,1.7C23.8,45.2,23,46,22,46z M22,34.9H6.4c-1,0-1.7-0.8-1.7-1.7c0-1,0.8-1.7,1.7-1.7H22c1,0,1.7,0.8,1.7,1.7
			C23.8,34.1,23,34.9,22,34.9z M45.8,23H6.4c-1,0-1.7-0.8-1.7-1.7c0-1,0.8-1.7,1.7-1.7h39.4c1,0,1.7,0.8,1.7,1.7
			C47.5,22.2,46.8,23,45.8,23z"/>
		<path id="Path" class="st1" d="M17.3,10c0,1.2-1,2.2-2.2,2.2c-1.2,0-2.2-1-2.2-2.2V2.4c0-1.2,1-2.2,2.2-2.2c1.2,0,2.2,1,2.2,2.2
			V10z"/>
		<path id="Path_1_" class="st1" d="M39.4,10c0,1.2-1,2.2-2.2,2.2s-2.2-1-2.2-2.2V2.4c0-1.2,1-2.2,2.2-2.2s2.2,1,2.2,2.2V10z"/>
		<path id="Shape_1_" class="st1" d="M47.7,33.6c-7.3,0-13.3,5.9-13.3,13.3c0,7.3,5.9,13.3,13.3,13.3S61,54.2,61,46.9
			C61,39.5,55.1,33.6,47.7,33.6z M52.8,49.4h-6.1c-0.2,0-0.4,0-0.6-0.1c0,0,0,0,0,0c-0.1,0-0.2-0.1-0.2-0.1c0,0,0,0,0,0
			c0,0-0.1-0.1-0.1-0.1c0,0-0.1,0-0.1-0.1c0,0,0-0.1-0.1-0.1c0,0-0.1-0.1-0.1-0.1c0,0,0,0,0,0c0-0.1-0.1-0.1-0.1-0.2c0,0,0,0,0,0
			c-0.1-0.2-0.1-0.4-0.1-0.6v-6.1c0-0.8,0.7-1.5,1.5-1.5c0.8,0,1.5,0.7,1.5,1.5v4.6h4.6c0.8,0,1.5,0.7,1.5,1.5
			C54.3,48.7,53.7,49.4,52.8,49.4z"/>
	</g>
</g>
</svg>
