<?xml version="1.0" encoding="utf-8"?>
<!-- Generator: Adobe Illustrator 21.1.0, SVG Export Plug-In . SVG Version: 6.00 Build 0)  -->
<svg version="1.1" id="Layer_1" xmlns="http://www.w3.org/2000/svg" xmlns:xlink="http://www.w3.org/1999/xlink" x="0px" y="0px"
	 viewBox="0 0 44 45" style="enable-background:new 0 0 44 45;" xml:space="preserve">
<style type="text/css">
	.st1{fill:#4f75b4;}
</style>
<title>Combined Shape</title>
<desc>Created with Sketch.</desc>
<g id="Page-1" class="st0">
	<g id="main" transform="translate(-601.000000, -744.000000)">
		<path id="Combined-Shape" class="st1" d="M618.9,788c-3,0-5.3-2.3-5.3-5.2h10.7C624.3,785.7,621.9,788,618.9,788z M634.3,772.4
			l1.3,1.2c1.6,1.5,1.7,4.1,0.1,5.7c-0.8,0.8-1.7,1.2-2.8,1.2h-11.3h-5.3H605c-1,0-2-0.4-2.8-1.2c-1.6-1.6-1.6-4.2,0.1-5.7l1.3-1.2
			c0.8-0.8,1.3-1.9,1.3-3c0,0,0-2.8,0-6.3c0-5,2.8-10.5,7.7-13.2c0.2-3.4,3-6.1,6.4-6.1c3.4,0,6.2,2.7,6.4,6.1
			c0.6,0.3,1.1,0.6,1.6,1c-0.6,1.4-1,3.1-1,4.8c0,4.8,3,8.8,7.1,10.5c0,1.9,0,3.1,0,3.1c0,0.3,0.1,0.7,0.1,1
			c0.2,0.2,0.3,0.5,0.3,0.8v0.1C633.6,771.7,633.9,772.1,634.3,772.4z M618.9,746.3c-1.8,0-3.3,1.2-3.9,2.8c1.1-0.3,2.3-0.5,3.5-0.5
			h0.8c1.2,0,2.4,0.2,3.5,0.5C622.2,747.5,620.7,746.3,618.9,746.3z M636.6,764.9c-4.6,0-8.4-3.8-8.4-8.4c0-4.6,3.8-8.4,8.4-8.4
			s8.4,3.8,8.4,8.4C645,761.1,641.2,764.9,636.6,764.9z"/>
	</g>
</g>
</svg>
