<svg width="50" height="50" viewBox="0 0 50 50" fill="none" xmlns="http://www.w3.org/2000/svg">
<path d="M48.9617 9.55503L43.4957 2.69753C42.9795 2.04973 42.1962 1.67236 41.3677 1.67236H13.1168C12.2885 1.67236 11.5052 2.04973 10.9889 2.69744L5.52298 9.55503C4.95199 10.2715 4.48475 11.6072 4.48475 12.6155V17.6385C4.9189 16.9555 5.55346 16.4428 6.3144 16.1806C6.35697 15.6066 6.53099 15.0499 6.82862 14.5429C7.34422 13.6647 8.17135 13.0402 9.15721 12.7837C9.51064 12.6914 9.83425 12.6496 10.1578 12.6496C11.4613 12.6496 12.6425 13.3126 13.3342 14.3543C13.5401 14.3184 13.748 14.2998 13.9566 14.2998C14.5967 14.2998 15.2015 14.4758 15.7284 14.779L18.756 13.9915C19.1355 13.8925 19.5253 13.8428 19.916 13.8428C22.01 13.8428 23.8404 15.2592 24.368 17.2875L30.3015 40.0926C30.6111 41.2824 30.4384 42.5215 29.8165 43.5819C29.1939 44.6422 28.1954 45.3962 27.0055 45.7059L24.3574 46.3947H46.5983C48.477 46.3947 50 44.8717 50 42.9931L49.9999 12.5233C49.9999 11.6072 49.5327 10.2715 48.9617 9.55503ZM7.30917 9.49702L9.1193 7.22603H21.4694L22.6882 5.22228H10.7165L12.0529 3.54564C12.3125 3.21991 12.7003 3.03306 13.1168 3.03306H41.3678C41.7844 3.03306 42.1722 3.21991 42.4318 3.54564L43.7681 5.22228H31.5832L32.2635 7.22603H45.3653L47.1754 9.49702H7.30917ZM7.8613 17.8759L7.09782 18.0745C6.28467 18.2861 5.79692 19.1169 6.00844 19.93L6.0162 19.9598C6.2278 20.773 7.05852 21.2607 7.87175 21.0491L14.3466 19.3647C15.1598 19.1531 15.6475 18.3224 15.436 17.5091L15.4282 17.4794C15.2166 16.6662 14.3859 16.1785 13.5727 16.39L12.8092 16.5886C12.4013 16.6947 11.9845 16.45 11.8784 16.0421L11.8718 16.0173C11.6253 15.0699 10.6576 14.5017 9.71023 14.7482L9.67061 14.7585C8.72322 15.0049 8.15509 15.9727 8.40149 16.9201L8.40803 16.9449C8.51399 17.3531 8.2693 17.7698 7.8613 17.8759ZM9.9483 15.7451C10.359 15.6383 10.7786 15.8847 10.8854 16.2953C10.9923 16.706 10.7459 17.1256 10.3351 17.2324C9.92445 17.3392 9.50492 17.0928 9.39806 16.6822C9.29128 16.2715 9.5376 15.8519 9.9483 15.7451ZM19.4906 39.1998C19.5618 39.4736 19.3976 39.7533 19.1239 39.8245L9.70402 42.275C9.43025 42.3462 9.15051 42.1819 9.07927 41.9082L8.95027 41.4125C8.87902 41.1386 9.04324 40.8589 9.3171 40.7877L18.7369 38.3373C19.0107 38.266 19.2904 38.4303 19.3616 38.704L19.4906 39.1998ZM20.6395 29.373L20.7685 29.8687C20.8397 30.1426 20.6755 30.4222 20.4016 30.4934L7.51146 33.8469C7.23761 33.9181 6.95795 33.7539 6.88671 33.4802L6.7577 32.9843C6.68646 32.7105 6.85068 32.4308 7.12453 32.3597L20.0147 29.0063C20.2886 28.935 20.5682 29.0991 20.6395 29.373ZM19.2409 26.0316L6.35068 29.3849C6.07682 29.4561 5.79717 29.2918 5.72592 29.0181L5.59692 28.5223C5.52568 28.2485 5.6899 27.9689 5.96375 27.8976L18.8539 24.5443C19.1278 24.4731 19.4074 24.6373 19.4787 24.9111L19.6077 25.4069C19.6789 25.6806 19.5147 25.9603 19.2409 26.0316ZM18.9546 35.1046L8.54324 37.8131C8.26938 37.8842 7.98973 37.72 7.91849 37.4462L7.78948 36.9505C7.71824 36.6766 7.88246 36.397 8.15631 36.3257L18.5676 33.6174C18.8414 33.5461 19.1211 33.7104 19.1923 33.9842L19.3213 34.4799C19.3927 34.7537 19.2284 35.0334 18.9546 35.1046ZM28.3258 40.6066L22.393 17.8009C22.0368 16.4318 20.6382 15.6107 19.2692 15.9669L16.246 16.7534C16.3175 16.901 16.3768 17.0569 16.4197 17.2214C16.7809 18.61 15.9632 20.0029 14.6043 20.3564L8.22469 22.016C6.92241 22.3548 5.52021 21.6843 5.08303 20.4116C5.00068 20.1719 4.95615 19.931 4.94341 19.6937L1.91711 20.481C0.548073 20.8371 -0.273004 22.2357 0.083123 23.6047L6.01596 46.4105C6.37217 47.7796 7.77069 48.6006 9.13973 48.2444L26.492 43.7303C27.8609 43.3742 28.682 41.9757 28.3258 40.6066ZM8.49479 45.7656L3.33581 25.9346L20.688 21.4205L25.8471 41.2515L8.49479 45.7656Z" fill="#4F75B4"/>
</svg>
