<svg width="54" height="54" viewBox="0 0 54 54" fill="none" xmlns="http://www.w3.org/2000/svg">
<g id="icon24_plus blue" opacity="1">
<path id="icon24_plus pink" d="M41.7692 23.3475H30.1879V12.6509C30.1879 10.6331 28.4184 9 26.2357 9C24.0531 9 22.2835 10.6331 22.2835 12.6509V23.3471H10.7022C8.51958 23.3471 6.75 24.9802 6.75 26.998C6.75 29.0158 8.51958 30.6489 10.7022 30.6489H22.2835V41.3451C22.2835 43.3637 24.0531 44.9968 26.2357 44.9968C28.4184 44.9968 30.1879 43.3637 30.1879 41.3459V30.6493H41.7692C43.9518 30.6493 45.7214 29.0162 45.7214 26.9984C45.7214 24.9806 43.9518 23.3475 41.7692 23.3475Z" fill="#4f75b4"/>
</g>
</svg>
