<?xml version="1.0" encoding="utf-8"?>
<!-- Generator: Adobe Illustrator 21.1.0, SVG Export Plug-In . SVG Version: 6.00 Build 0)  -->
<svg version="1.1" id="Layer_1" xmlns="http://www.w3.org/2000/svg" xmlns:xlink="http://www.w3.org/1999/xlink" x="0px" y="0px"
	 viewBox="0 0 43 43" style="enable-background:new 0 0 43 43;" xml:space="preserve">
<style type="text/css">
	.st1{fill:#4f75b4;}
</style>
<title>Shape</title>
<desc>Created with Sketch.</desc>
<g id="Page-1" class="st0">
	<g id="r_main" transform="translate(-1088.000000, -757.000000)">
		<path id="Shape" class="st1" d="M1100.2,794.5l-7.4-7.4c-0.2-0.2-0.2-0.5,0-0.7l23.1-23.1c0.2-0.2,0.5-0.2,0.7,0l7.4,7.4
			c0.2,0.2,0.2,0.5,0,0.7l-23.1,23.2C1100.7,794.7,1100.4,794.7,1100.2,794.5z M1088.6,799.3l9.7-2.8c0.3-0.1,0.5-0.5,0.2-0.8
			l-6.9-6.9c-0.2-0.2-0.7-0.1-0.8,0.2l-2.7,9.7C1087.9,799.1,1088.3,799.4,1088.6,799.3z M1129.5,761.9l-4.1-4.1
			c-1.1-1.1-2.9-1.1-4,0l-3.4,3.4c-0.2,0.2-0.2,0.5,0,0.7l7.4,7.4c0.2,0.2,0.5,0.2,0.7,0l3.4-3.4
			C1130.6,764.8,1130.6,763,1129.5,761.9z"/>
	</g>
</g>
</svg>
