<?xml version="1.0" encoding="utf-8"?>
<!-- Generator: Adobe Illustrator 21.1.0, SVG Export Plug-In . SVG Version: 6.00 Build 0)  -->
<svg version="1.1" id="Layer_1" xmlns="http://www.w3.org/2000/svg" xmlns:xlink="http://www.w3.org/1999/xlink" x="0px" y="0px"
	 viewBox="0 0 40 53" style="enable-background:new 0 0 40 53;" xml:space="preserve">
<style type="text/css">
	.st1{fill:#4f75b4;}
</style>
<title>report</title>
<desc>Created with Sketch.</desc>
<g id="Page-1" class="st0">
	<g id="main" transform="translate(-993.000000, -543.000000)">
		<path id="report" class="st1" d="M993,543v52.1h40v-42.4h-8.5c-0.7,0-1.2-0.6-1.2-1.2V543H993z M1025.7,544.2v6.1h6.1
			L1025.7,544.2z M1008.8,553.3c0.5,0,0.9,0.3,1.1,0.7c0.2,0.4,0.1,1-0.2,1.3l-6.1,7.3c-0.4,0.5-1.3,0.5-1.8,0.1l-3.6-3.6
			c-0.5-0.4-0.5-1.3,0-1.7c0.5-0.5,1.3-0.5,1.7,0l2.7,2.7l5.2-6.2c0.2-0.2,0.5-0.4,0.8-0.5C1008.7,553.3,1008.7,553.3,1008.8,553.3
			L1008.8,553.3z M1012.4,558.8h14.5c0.7,0,1.2,0.5,1.2,1.2c0,0.7-0.5,1.2-1.2,1.2h-14.5c-0.7,0-1.2-0.5-1.2-1.2
			C1011.2,559.3,1011.7,558.8,1012.4,558.8z M1008.8,566.6c0.5,0,0.9,0.3,1.1,0.7c0.2,0.4,0.1,1-0.2,1.3l-6.1,7.3
			c-0.4,0.5-1.3,0.5-1.8,0.1l-3.6-3.6c-0.5-0.4-0.5-1.3,0-1.7c0.5-0.5,1.3-0.5,1.7,0l2.7,2.7l5.2-6.2c0.2-0.2,0.5-0.4,0.8-0.5
			C1008.7,566.6,1008.7,566.6,1008.8,566.6L1008.8,566.6z M1012.4,572.1h14.5c0.7,0,1.2,0.5,1.2,1.2s-0.5,1.2-1.2,1.2h-14.5
			c-0.7,0-1.2-0.5-1.2-1.2S1011.7,572.1,1012.4,572.1z M1008.8,579.9c0.5,0,0.9,0.3,1.1,0.7c0.2,0.4,0.1,1-0.2,1.3l-6.1,7.3
			c-0.4,0.5-1.3,0.5-1.8,0.1l-3.6-3.6c-0.5-0.4-0.5-1.3,0-1.7c0.5-0.5,1.3-0.5,1.7,0l2.7,2.7l5.2-6.2c0.2-0.2,0.5-0.4,0.8-0.5
			C1008.7,579.9,1008.7,579.9,1008.8,579.9L1008.8,579.9z M1012.4,585.4h14.5c0.7,0,1.2,0.5,1.2,1.2c0,0.7-0.5,1.2-1.2,1.2h-14.5
			c-0.7,0-1.2-0.5-1.2-1.2C1011.2,586,1011.7,585.4,1012.4,585.4z"/>
	</g>
</g>
</svg>
