<?xml version="1.0" encoding="utf-8"?>
<!-- Generator: Adobe Illustrator 21.1.0, SVG Export Plug-In . SVG Version: 6.00 Build 0)  -->
<svg version="1.1" id="Layer_1" xmlns="http://www.w3.org/2000/svg" xmlns:xlink="http://www.w3.org/1999/xlink" x="0px" y="0px"
	 viewBox="0 0 39 47" style="enable-background:new 0 0 39 47;" xml:space="preserve">
<style type="text/css">
	.st1{fill:#4f75b4;}
</style>
<title>Shape</title>
<desc>Created with Sketch.</desc>
<g id="Page-1" class="st0">
	<g id="main" transform="translate(-993.000000, -748.000000)">
		<path id="Shape" class="st1" d="M1024.4,779c-1.7,0-3.3,0.6-4.6,1.6l-12.1-6.7c0.2-0.7,0.4-1.6,0.4-2.5c0-0.9-0.2-1.7-0.4-2.5
			l12.7-7.1c1.2,0.7,2.6,1.1,4,1.1c4.1,0,7.6-3.4,7.6-7.6s-3.4-7.5-7.6-7.5c-4.1,0-7.6,3.4-7.6,7.6c0,1.2,0.2,2.3,0.8,3.3l-12.2,6.8
			c-1.4-1.2-3-1.8-4.9-1.8c-4.1,0-7.6,3.4-7.6,7.6c0,4.1,3.4,7.6,7.6,7.6c1.8,0,3.6-0.6,4.9-1.8l11.9,6.6c-0.3,0.9-0.6,1.8-0.6,2.8
			c0,4.1,3.4,7.6,7.6,7.6c4.1,0,7.6-3.4,7.6-7.6S1028.6,779,1024.4,779z"/>
	</g>
</g>
</svg>
