<?xml version="1.0" encoding="utf-8"?>
<!-- Generator: Adobe Illustrator 21.1.0, SVG Export Plug-In . SVG Version: 6.00 Build 0)  -->
<svg version="1.1" id="Layer_1" xmlns="http://www.w3.org/2000/svg" xmlns:xlink="http://www.w3.org/1999/xlink" x="0px" y="0px"
	 viewBox="0 0 40 25" style="enable-background:new 0 0 40 25;" xml:space="preserve">
<style type="text/css">
	.st0{fill:#5FAD41;}
</style>
<title>icon40/device/green4</title>
<desc>Created with Sketch.</desc>
<g id="icon40_x2F_device_x2F_green4">
	<path id="Combined-Shape" class="st0" d="M29.8,14.9c1.8,0,3.3,1.5,3.3,3.3v3.4c0,1.8-1.5,3.3-3.3,3.3H9.7c-1.8,0-3.3-1.5-3.3-3.3
		v-3.4c0-1.8,1.5-3.3,3.3-3.3h3.1V4.8c0-0.6,0.4-1,1-1s1,0.4,1,1v10.2h9.9V4.8c0-0.6,0.4-1,1-1c0.6,0,1,0.4,1,1v10.2H29.8z
		 M31.1,21.7v-3.4c0-0.7-0.6-1.3-1.3-1.3H9.7c-0.7,0-1.3,0.6-1.3,1.3v3.4C8.4,22.4,9,23,9.7,23h20.1C30.6,23,31.1,22.4,31.1,21.7z
		 M11.6,1.6c0.2,0.2,0.3,0.4,0.3,0.7S11.8,2.9,11.6,3c-0.7,0.7-0.7,1.8,0,2.5C12,6,12,6.6,11.7,7c-0.4,0.4-1,0.4-1.4,0.1L10.2,7
		C9.5,6.3,9.1,5.3,9.1,4.3s0.4-2,1.1-2.7c0.2-0.2,0.4-0.3,0.7-0.3S11.4,1.4,11.6,1.6z M8.4,8.6c-0.3,0-0.5-0.1-0.7-0.3
		c-2.2-2.2-2.2-5.8,0-8C7.9,0,8.3-0.1,8.6,0C9,0.1,9.3,0.4,9.3,0.7s0,0.7-0.3,1c-1.4,1.4-1.4,3.7,0,5.2C9.4,7.2,9.5,7.6,9.3,8
		C9.2,8.4,8.8,8.6,8.4,8.6z M29.4,1.6c0.7,0.7,1.1,1.7,1.1,2.7s-0.4,2-1.1,2.7L28,5.6c0.7-0.7,0.7-1.8,0-2.5c-0.3-0.3-0.4-0.6-0.3-1
		c0.1-0.3,0.4-0.6,0.7-0.7C28.7,1.3,29.1,1.4,29.4,1.6z M30.5,0.3C30.7,0.1,30.9,0,31.2,0c0.3,0,0.5,0.1,0.7,0.3
		c2.2,2.2,2.2,5.8,0,8c-0.4,0.4-1,0.4-1.4,0c-0.4-0.4-0.4-1,0-1.4c1.4-1.4,1.4-3.7,0-5.2c-0.2-0.2-0.3-0.4-0.3-0.7
		S30.3,0.5,30.5,0.3z M19.8,17.7c0.6,0,1,0.4,1,1v2.4c0,0.6-0.4,1-1,1s-1-0.4-1-1v-2.4C18.8,18.1,19.2,17.7,19.8,17.7z M16.3,17.7
		c0.6,0,1,0.4,1,1v2.4c0,0.6-0.4,1-1,1s-1-0.4-1-1v-2.4C15.3,18.1,15.8,17.7,16.3,17.7z M23.2,17.7c0.6,0,1,0.4,1,1v2.4
		c0,0.6-0.4,1-1,1s-1-0.4-1-1v-2.4C22.2,18.1,22.7,17.7,23.2,17.7z"/>
</g>
</svg>
